<svg width="499" height="499" viewBox="0 0 499 499" xmlns="http://www.w3.org/2000/svg"><g fill="#FFF"><path d="M9.3 131l219.43 106c5.71 2.72 13.36 4.15 20.88 4.15s15.17-1.43 20.88-4.15l219.43-106c11.55-5.58 11.55-14.66 0-20.23l-219.43-106C264.78 2.05 257.13.62 249.61.62s-15.17 1.43-20.88 4.15L9.3 110.77c-11.51 5.57-11.51 14.65 0 20.23z"/><path d="M489.92 239.55s-40.07-19.32-45.39-21.92c-5.32-2.6-6.74-2.46-12.32.13s-161.85 78.12-161.85 78.12c-5.84 2.73-13.36 4.15-20.88 4.15s-15.17-1.42-20.88-4.15c0 0-152.13-73.4-159.26-76.9-7.78-3.76-10-3.76-17-.39L9.03 239.47c-11.55 5.58-11.55 14.65 0 20.23l219.43 106c5.71 2.72 13.36 4.15 20.88 4.15s15.17-1.43 20.88-4.15l219.43-106c11.81-5.45 11.81-14.52.26-20.1l.01-.05z"/><path d="M444.53 346.41c-5.32-2.6-6.74-2.46-12.32.13s-161.72 78.2-161.72 78.2c-5.84 2.73-13.36 4.16-20.88 4.16s-15.17-1.43-20.88-4.16c0 0-152.13-73.4-159.26-76.9-7.78-3.76-10-3.76-17-.39L9.16 368.33c-11.55 5.58-11.55 14.66 0 20.23l219.43 106c5.71 2.85 13.36 4.15 20.88 4.15s15.17-1.43 20.88-4.15l219.44-106c11.68-5.57 11.68-14.65.13-20.23 0 0-40.07-19.32-45.39-21.92z"/></g></svg>