<svg data-name="Layer 1" xmlns="http://www.w3.org/2000/svg" width="1036" height="784.369" viewBox="0 0 1036 784.369"><path d="M678.397 0l-188.81 210.734a93.596 93.596 0 11-124.603 139.07l-263.002 293.54A431.117 431.117 0 00367.18 734.06c239.15 0 433.018-193.869 433.018-433.018A431.555 431.555 0 00678.398 0z" fill="#f2f2f2"/><circle cx="435.417" cy="289.506" r="56.493" fill="#f2f2f2"/><path fill="#3f3d56" d="M95.568 394.392h617.229v388.917H95.568z"/><path d="M773.445 201.602s-39.783-1.612-40.858 39.245 0 75.802 0 75.802h79.565v-73.651s-1.613-38.708-38.707-41.396z" fill="#2f2e41"/><path d="M757.916 274.417s2.362 26.768-5.511 29.13 3.149 36.215 3.149 36.215l31.491 7.085 18.108-36.215-7.873-10.234s-13.384-18.108-7.086-30.704-32.278 4.723-32.278 4.723z" fill="#ffb9b9"/><path d="M757.916 274.417s2.362 26.768-5.511 29.13 3.149 36.215 3.149 36.215l31.491 7.085 18.108-36.215-7.873-10.234s-13.384-18.108-7.086-30.704-32.278 4.723-32.278 4.723z" opacity=".1"/><circle cx="768.938" cy="256.31" r="30.704" fill="#ffb9b9"/><path d="M649.271 361.806s-18.895 14.17-13.384 25.193 22.044 48.811 22.044 48.811 3.15 29.13 16.533 27.555 0-30.704 0-30.704l-16.533-44.875 5.511-8.66zm255.079 4.724s21.257 16.532 8.66 22.83-66.131 36.215-66.131 36.215-32.279 24.406-36.215 5.511 21.256-18.107 21.256-18.107 50.386-30.704 52.748-37.002 19.682-9.448 19.682-9.448z" fill="#ffb9b9"/><path d="M716.977 474.387s-10.234 55.897-4.723 87.388a155.827 155.827 0 01-1.575 59.046l30.704 3.15s19.682-116.518 30.704-115.731 34.64 117.305 34.64 117.305l33.066-4.724s-10.235-51.96-5.51-67.706 1.574-72.43-10.236-78.728-107.07 0-107.07 0z" fill="#575a89"/><path d="M744.532 620.821s-35.428-11.81-38.577-3.149-2.362 105.496-1.574 111.794 3.149 3.15.787 6.298-2.362-3.936-1.575 4.724 1.575 10.235 1.575 10.235S690.997 783.788 716.19 783s13.384-24.406 13.384-24.406 3.936-7.085 1.574-11.022-3.149-10.234 0-13.383-3.149-9.448-3.936-11.81-3.15-1.574 3.149-9.447 3.15-11.81 2.362-14.171 5.51-16.533 5.51-16.533zm59.833 0s35.428-11.81 38.577-3.149 2.362 105.496 1.575 111.794-3.15 3.15-.788 6.298 2.362-3.936 1.575 4.724-1.575 10.235-1.575 10.235 14.172 33.065-11.021 32.278-13.384-24.406-13.384-24.406-3.937-7.085-1.575-11.022 3.15-10.234 0-13.383 3.15-9.448 3.937-11.81 3.149-1.574-3.15-9.447-3.149-11.81-2.361-14.171-5.511-16.533-5.511-16.533z" fill="#2f2e41"/><path d="M770.512 328.74s-5.51-16.533-8.66-19.682-5.192-11.298-5.192-11.298-17.639 6.574-22.363 8.149-20.469 1.574-20.469 3.936v50.386s-1.574 10.235 1.575 36.215 12.596 41.726 1.574 52.748-1.574 37.79 3.937 42.513 112.58 29.13 113.368-28.342c0 0-25.98-45.662-14.958-60.62s20.47-40.152 20.47-40.152v-50.386s-17.321-5.511-22.832-6.298-18.895-15.746-20.47-14.959-4.617-.03-4.617-.03l-.106 11.052z" fill="#6c63ff"/><path d="M724.85 313.781l-11.022-3.936s-13.384 7.086-13.384 8.66-7.873 8.66-11.809 11.81-14.958 3.936-14.958 5.51-34.64 26.768-31.492 30.704 13.384 18.108 18.895 18.108 18.895-14.171 21.257-14.959 26.767-15.745 34.64-13.383 7.873-42.514 7.873-42.514zm99.985 1.575l14.958-3.15s28.342 21.257 29.13 22.045 44.875 29.13 42.513 34.64-27.555 13.384-33.853 11.022-33.066-22.044-43.3-19.682-9.448-44.875-9.448-44.875z" fill="#6c63ff"/><path d="M801.61 246.469c3.738-15.698 2.21-19.868 2.21-19.868l-47.847-11.827-16.666 16.128v16.665l1.682 5.2s6.92-5.2 4.232-12.726c0 0 53.7 17.717 56.389 6.428z" fill="#2f2e41"/><path d="M802.206 237.682l-4.532 4.85c7.148.087-2.373 57.617.787 66.92l11.809.268v-76.63z" fill="#2f2e41"/><ellipse cx="739.415" cy="251.586" rx="2.362" ry="5.117" fill="#ffb9b9"/><ellipse cx="800.035" cy="251.586" rx="2.362" ry="5.117" fill="#ffb9b9"/><path fill="#2f2e41" d="M372.707 694.753l-1.414-1.414 60.793-60.793-53.793-53.793 1.414-1.414 55.207 55.207-62.207 62.207z"/><circle cx="430" cy="633.046" r="21" fill="#6c63ff"/><circle cx="375" cy="694.046" r="21" fill="#6c63ff"/><path fill="#2f2e41" d="M376.707 578.753l-1.414-1.414 60.793-60.793-53.793-53.793 1.414-1.414 55.207 55.207-62.207 62.207z"/><circle cx="383" cy="462.046" r="21" fill="#6c63ff"/><circle cx="434" cy="517.046" r="21" fill="#6c63ff"/><circle cx="379" cy="578.046" r="21" fill="#6c63ff"/><path fill="#6c63ff" opacity=".3" d="M123 419.046h104v19H123zm415 215h104v5H538zm0 15h104v5H538zm0 15h104v5H538zm0 15h104v5H538zm0 15h104v5H538zm0 15h104v5H538z"/><path d="M66.758 742.982c6.914 25.558 30.596 41.387 30.596 41.387s12.472-25.61 5.558-51.168-30.596-41.387-30.596-41.387-12.472 25.61-5.558 51.168z" fill="#3f3d56"/><path d="M76.918 737.489c18.972 18.469 21.289 46.859 21.289 46.859s-28.443-1.553-47.415-20.021-21.289-46.86-21.289-46.86 28.443 1.553 47.415 20.022z" fill="#6c63ff"/><path fill="#3f3d56" d="M0 782.046h1036v2H0z"/><path d="M978.5 720.523a22.031 22.031 0 00-14.031-20.5 22 22 0 10-15.938 0 21.991 21.991 0 000 41 22 22 0 1015.938 0 22.031 22.031 0 0014.031-20.5zm-42-41a20 20 0 1124.513 19.467 22.024 22.024 0 00-9.026 0 20.02 20.02 0 01-15.487-19.467zm40 82a20 20 0 11-24.513-19.468 22.023 22.023 0 009.026 0 20.02 20.02 0 0115.487 19.468zm-15.487-21.533a22.024 22.024 0 00-9.026 0 19.979 19.979 0 010-38.935 22.023 22.023 0 009.026 0 19.979 19.979 0 010 38.935zM106.5 356.523a22 22 0 1122-22 22.025 22.025 0 01-22 22zm0-42a20 20 0 1020 20 20.022 20.022 0 00-20-20zm467-177a22 22 0 1122-22 22.025 22.025 0 01-22 22zm0-42a20 20 0 1020 20 20.022 20.022 0 00-20-20z" fill="#3f3d56"/></svg>