<svg width="1108" height="732" viewBox="0 0 1108 732" xmlns="http://www.w3.org/2000/svg"><g fill="none" fill-rule="evenodd"><path d="M767.68 330.79l6.89-2.7c.66-.26 1.31-.54 2-.81-26.263-9.67-42.318-36.25-38.656-63.995 3.662-27.747 26.063-49.25 53.936-51.775l-4.8 24.2 18.22-23.92h.16c32.75 4.503 55.654 34.698 51.16 67.45-.15 1.13-.39 2.23-.6 3.34 5.61-4.43 10.87-9.32 14.81-15 8-11.54 10.71-25.76 13.47-43.17 5.47-34.48 10.4-69.34 14.84-104.18-28.165-8.498-45.973-36.21-42-65.36.25-1.82.6-3.59 1-5.34.1-.44.2-.88.31-1.31.43-1.69.91-3.35 1.47-5 .09-.27.21-.52.3-.78.5-1.37 1-2.72 1.65-4 .22-.5.44-1 .67-1.47a57.69 57.69 0 012.22-4.19c.27-.45.56-.88.83-1.33.62-1 1.27-2 1.94-2.93.36-.5.71-1 1.08-1.49l.27-.39c17.52-22.932 48.917-30.083 74.64-17l-6.24 31.49 18-23.64c19.872 16.836 26.485 44.64 16.32 68.62h.07c-.17.4-.38.78-.55 1.18-.33.74-.67 1.47-1 2.2-.46.93-1 1.84-1.45 2.74-.38.68-.75 1.36-1.16 2-.59 1-1.23 1.9-1.87 2.83-.38.54-.73 1.1-1.12 1.63-1 1.39-2.12 2.72-3.26 4-.4.45-.83.86-1.25 1.3-.81.86-1.62 1.71-2.48 2.52-.53.5-1.09 1-1.64 1.46-.79.7-1.6 1.38-2.43 2-.59.47-1.19.92-1.79 1.36a77.101 77.101 0 01-4.45 2.96c-1 .61-2.05 1.17-3.1 1.72-.53.27-1 .57-1.59.83-1.58.77-3.2 1.48-4.85 2.11-.31.12-.64.21-.95.32-1.38.5-2.77 1-4.18 1.35-.61.17-1.23.31-1.85.46-1.15.28-2.31.54-3.48.76-.667.12-1.357.23-2.07.33-1.15.17-2.31.3-3.48.4-.69.06-1.37.12-2.07.16-1.26.06-2.53.07-3.8.06a2.08 2.08 0 00-.25 0 3551.468 3551.468 0 01-5.92 44 59.82 59.82 0 0186.4-10.32l-15.68 26.58 25.21-16.59a59.68 59.68 0 0111.5 44.16 58.76 58.76 0 01-4.5 15.94c-9.847 22.482-32.426 36.67-56.954 35.787-24.528-.883-46.03-16.656-54.236-39.787-.23 1.48-.45 3-.68 4.46-2.44 15.35-5.47 34.46-16.23 50-7.29 10.56-17.33 18.36-27.09 25.22a353.265 353.265 0 01-19.48 12.77 59.85 59.85 0 01-24.53 13.74 375.755 375.755 0 01-32.69 14.81l-6.95 2.72c-6.25 2.44-12.65 4.94-19 7.6 1 .09 2 .17 3 .3 25.818 3.545 46.382 23.377 50.86 49.05l-42.31 23.11 42.18-1.89A59.16 59.16 0 01797 450.13c-19.833 25.673-56.506 30.88-82.7 11.74l2.1 3.91c1.4 2.58 2.78 5.15 4.12 7.7 18.33 34.74 19.66 64.74 3.75 84.49l-13-10.45c15.49-19.22 3.2-49.77-5.5-66.27-1.32-2.5-2.68-5-4-7.56-11.77-21.83-25.12-46.57-19.77-72.9 8-39.7 51.05-56.5 85.68-70zM269.6 519.01l-5.38-2.11c-.52-.2-1-.43-1.54-.63 20.503-7.561 33.033-28.318 30.172-49.983-2.861-21.664-20.349-38.457-42.112-40.437l3.75 18.9-14.22-18.68h-.13a46.76 46.76 0 00-40 52.68c.12.89.31 1.74.47 2.61a55.84 55.84 0 01-11.56-11.73c-6.23-9-8.37-20.12-10.53-33.71-4.23-26.93-8.07-54.15-11.52-81.33 21.988-6.647 35.882-28.291 32.77-51.05-.2-1.42-.47-2.8-.79-4.17l-.24-1a48.36 48.36 0 00-1.15-3.88c-.07-.21-.16-.41-.24-.61a48.24 48.24 0 00-1.28-3.15c-.18-.38-.35-.77-.53-1.15-.54-1.11-1.11-2.2-1.73-3.26-.21-.36-.44-.7-.65-1-.49-.78-1-1.55-1.52-2.29-.28-.39-.55-.79-.84-1.17l-.21-.3c-13.682-17.906-38.189-23.506-58.29-13.32l4.88 24.6-14.07-18.46c-15.518 13.15-20.683 34.861-12.75 53.59h-.05c.13.31.29.61.43.92.26.58.52 1.15.8 1.72.36.72.74 1.43 1.14 2.13.29.54.58 1.07.9 1.59.46.75 1 1.48 1.46 2.21.3.42.57.86.88 1.27.8 1.08 1.65 2.12 2.54 3.13.31.35.65.67 1 1 .63.67 1.27 1.33 1.94 2 .41.4.85.77 1.28 1.14a41.86 41.86 0 001.89 1.59c.46.36.93.71 1.4 1.06.68.49 1.37 1 2.06 1.41.47.31.94.61 1.42.9.79.48 1.6.91 2.42 1.34.42.22.82.45 1.24.66 1.24.6 2.5 1.15 3.79 1.64.24.1.5.16.74.25 1.07.39 2.16.75 3.27 1.06.47.13 1 .24 1.44.35.9.22 1.8.43 2.72.6l1.61.26c.9.13 1.81.23 2.72.31.54.05 1.07.09 1.62.12 1 .05 2 .06 3 .05h.19c1.467 11.48 3.007 22.95 4.62 34.41a46.71 46.71 0 00-67.48-8.14l12.14 20.64-19.68-12.95a46.57 46.57 0 00-9 34.49 45.8 45.8 0 003.53 12.46 46.73 46.73 0 0086.84-3.12c.18 1.15.35 2.32.53 3.48 1.9 12 4.27 26.92 12.67 39.08 5.7 8.24 13.54 14.33 21.16 19.69a284.552 284.552 0 0015.21 10 46.88 46.88 0 0019.16 10.74c8.32 4.26 16.84 8.14 25.54 11.56l5.42 2.13c4.88 1.9 9.88 3.85 14.81 5.93-.78.07-1.57.13-2.36.24-20.154 2.761-36.211 18.233-39.72 38.27l33 18-32.94-1.47a46.78 46.78 0 0073.57 29.2c-.55 1-1.09 2-1.64 3.05-1.09 2-2.17 4-3.22 6-14.31 27.13-15.35 50.57-2.92 66l10.13-8.16c-12.1-15-2.5-38.87 4.3-51.76 1-1.95 2.09-3.92 3.16-5.9 9.19-17 19.61-36.37 15.46-56.94-6.21-30.94-39.86-44.02-66.9-54.6z" fill="#F2F2F2" fill-rule="nonzero"/><ellipse fill="#3F3D56" fill-rule="nonzero" cx="554" cy="707.68" rx="554" ry="23.5"/><ellipse fill="#000" fill-rule="nonzero" opacity=".1" cx="554" cy="707.68" rx="554" ry="23.5"/><ellipse fill="#3F3D56" fill-rule="nonzero" cx="554" cy="694.68" rx="554" ry="23.5"/><path d="M85 686.32c-3-5.51.4-12.26 4.28-17.18 3.88-4.92 8.61-10 8.51-16.29-.14-9-9.7-14.31-17.33-19.08a84.78 84.78 0 01-15.56-12.51 23 23 0 01-4.78-6.4c-1.58-3.52-1.53-7.52-1.43-11.38a823.91 823.91 0 011.9-38.48" stroke="#3F3D56" stroke-width="4"/><path d="M46.11 564.29a14 14 0 017-11.49l3.14 6.21-.09-7.52a13.86 13.86 0 014.62-.56c7.715.377 13.667 6.932 13.3 14.647-.366 7.715-6.911 13.677-14.627 13.321-7.716-.355-13.687-6.892-13.343-14.608zm25.03 95a14 14 0 0026.5-5.76c.1-1.94-.21-3.878-.91-5.69a14 14 0 00-26.27.15l8.77 7.13-9.64-2.24a13.89 13.89 0 001.55 6.41zm6.93-27.25c7.25.548 13.714-4.545 14.876-11.722 1.162-7.178-3.363-14.05-10.416-15.818l.07 5.79-3.18-6.29c-7.746-.362-14.318 5.624-14.68 13.37-.362 7.746 5.624 14.318 13.37 14.68l-.04-.01zM44 609.37a14.016 14.016 0 001.32-28 13.88 13.88 0 00-7.52 1.78l2.48 6.8-5.11-4.9a14 14 0 00-4.53 9.69 13.33 13.33 0 00.36 3.85 14 14 0 0013 10.78z" fill="#6C63FF" fill-rule="nonzero"/><path d="M48 568.03c3.24.36 6.39 1.37 9.64 1.57 3.25.2 6.82-.58 8.88-3.1 1.11-1.37 1.66-3.09 2.59-4.57a10.08 10.08 0 013.54-3.33 14 14 0 11-26.24 9.32c.53.02 1.06.06 1.59.11zm-4 41.34a14 14 0 0013.35-20 10.4 10.4 0 00-2.82 2.83c-1 1.51-1.61 3.25-2.78 4.64-2.19 2.57-5.92 3.41-9.31 3.25-3.39-.16-6.66-1.11-10-1.42-.47 0-.94-.08-1.41-.09A14 14 0 0044 609.37zm34.07 22.67a14 14 0 0013.47-19.76 11.36 11.36 0 00-3 2.85c-1.09 1.54-1.77 3.31-3 4.73-2.36 2.64-6.34 3.57-9.93 3.48-3.59-.09-6.82-.93-10.28-1.19a14 14 0 0012.74 9.89zm-6.93 27.25a14 14 0 0026.5-5.76c.1-1.94-.21-3.878-.91-5.69a14 14 0 00-3.08 2.74c-1.34 1.63-2.21 3.47-3.76 5-2.87 2.82-7.5 4-11.62 4.09a62.35 62.35 0 01-7.13-.38z" fill="#000" fill-rule="nonzero" opacity=".1"/><path d="M106.19 679.98s-11.08-.34-14.41-2.72c-3.33-2.38-17-5.22-17.87-1.4-.87 3.82-16.65 19-4.14 19.06 12.51.06 29.06-2 32.39-4 3.33-2 4.03-10.94 4.03-10.94z" fill="#656380" fill-rule="nonzero"/><path d="M69.54 693.59c12.51.1 29.06-2 32.4-4 2.53-1.54 3.54-7.09 3.88-9.65h.37s-.7 8.93-4 11c-3.3 2.07-19.89 4.08-32.39 4-3.61 0-4.86-1.31-4.79-3.22.47 1.13 1.85 1.87 4.53 1.87z" fill="#000" fill-rule="nonzero" opacity=".2"/><path d="M1055 695.32c-3-5.51.4-12.26 4.28-17.18 3.88-4.92 8.61-10 8.51-16.29-.14-9-9.7-14.31-17.33-19.08a84.78 84.78 0 01-15.56-12.51 23 23 0 01-4.78-6.4c-1.58-3.52-1.53-7.52-1.43-11.38a806.48 806.48 0 011.9-38.48" stroke="#3F3D56" stroke-width="4"/><path d="M1016.11 573.29a14 14 0 017-11.49l3.14 6.21-.09-7.52a13.86 13.86 0 014.62-.56c7.713.383 13.66 6.94 13.29 14.653-.37 7.714-6.916 13.671-14.63 13.315-7.715-.357-13.684-6.893-13.34-14.608h.01zm25.03 95a14 14 0 0026.5-5.76c.1-1.94-.21-3.878-.91-5.69a14 14 0 00-26.27.15l8.77 7.13-9.64-2.24a13.89 13.89 0 001.55 6.41zm6.93-27.25c7.25.548 13.714-4.545 14.876-11.722 1.162-7.178-3.363-14.05-10.416-15.818l.07 5.79-3.18-6.29c-7.746-.362-14.318 5.624-14.68 13.37-.362 7.746 5.624 14.318 13.37 14.68l-.04-.01zM1014 618.37c7.732.365 14.295-5.608 14.66-13.34.365-7.732-5.608-14.295-13.34-14.66a13.88 13.88 0 00-7.52 1.78l2.48 6.8-5.11-4.9a14 14 0 00-4.53 9.69 13.33 13.33 0 00.36 3.85 14 14 0 0013 10.78z" fill="#6C63FF" fill-rule="nonzero"/><path d="M1018 577.03c3.24.36 6.39 1.37 9.64 1.57 3.25.2 6.82-.58 8.88-3.1 1.11-1.37 1.66-3.09 2.59-4.57a10.08 10.08 0 013.54-3.33 14 14 0 11-26.24 9.32c.53.02 1.06.06 1.59.11zm-4 41.34a14 14 0 0013.35-20 10.4 10.4 0 00-2.82 2.83c-1 1.51-1.61 3.25-2.78 4.64-2.19 2.57-5.92 3.41-9.31 3.25-3.39-.16-6.66-1.11-10-1.42-.47 0-.94-.08-1.41-.09a14 14 0 0012.97 10.79zm34.07 22.67a14 14 0 0013.47-19.76 11.36 11.36 0 00-3 2.85c-1.09 1.54-1.77 3.31-3 4.73-2.36 2.64-6.34 3.57-9.93 3.48-3.59-.09-6.82-.93-10.28-1.19a14 14 0 0012.74 9.89zm-6.93 27.25a14 14 0 0026.5-5.76c.1-1.94-.21-3.878-.91-5.69a14 14 0 00-3.08 2.74c-1.34 1.63-2.21 3.47-3.76 5-2.87 2.82-7.5 4-11.62 4.09a62.35 62.35 0 01-7.13-.38z" fill="#000" fill-rule="nonzero" opacity=".1"/><path d="M1076.19 688.98s-11.08-.34-14.41-2.72c-3.33-2.38-17-5.22-17.87-1.4-.87 3.82-16.65 19-4.14 19.06 12.51.06 29.06-2 32.39-4 3.33-2 4.03-10.94 4.03-10.94z" fill="#656380" fill-rule="nonzero"/><path d="M1039.54 702.59c12.51.1 29.06-2 32.4-4 2.53-1.54 3.54-7.09 3.88-9.65h.37s-.7 8.93-4 11c-3.3 2.07-19.89 4.08-32.39 4-3.61 0-4.86-1.31-4.79-3.22.47 1.13 1.85 1.87 4.53 1.87z" fill="#000" fill-rule="nonzero" opacity=".2"/><path d="M559.26 20.4c0 9.168-7.432 16.6-16.6 16.6-9.168 0-16.6-7.432-16.6-16.6 0-9.168 7.432-16.6 16.6-16.6a16.52 16.52 0 0116.6 16.6z" fill="#3F3D56" fill-rule="nonzero"/><path d="M529.4 24.59A16.62 16.62 0 01541.89.05a16.6 16.6 0 101.41 33.07 16.6 16.6 0 01-13.9-8.53z" fill="#3F3D56" fill-rule="nonzero"/><g fill-rule="nonzero"><path fill="#007ACC" d="M292 451.5V699h495V204H292z"/><path d="M402.157 453.468l-.157 20.29h64.27V657h45.46V473.758H576v-19.897c0-11.01-.235-20.212-.549-20.448-.235-.314-39.346-.472-86.765-.393l-86.294.236-.235 20.212zM691.2 432.04c12.583 3.147 22.177 8.734 30.985 17.86 4.56 4.878 11.324 13.769 11.874 15.893.158.63-21.39 15.107-34.444 23.21-.472.315-2.36-1.73-4.483-4.878-6.37-9.284-13.054-13.296-23.277-14.004-15.02-1.023-24.693 6.845-24.614 19.984 0 3.855.55 6.137 2.123 9.284 3.303 6.845 9.437 10.936 28.704 19.276 35.466 15.264 50.644 25.335 60.08 39.654 10.539 15.972 12.898 41.464 5.741 60.425-7.864 20.614-27.366 34.619-54.812 39.26-8.493 1.496-28.625 1.26-37.747-.393-19.896-3.54-38.77-13.375-50.409-26.278-4.56-5.036-13.447-18.175-12.897-19.12.236-.314 2.281-1.573 4.562-2.91a4528.519 4528.519 0 0018.401-10.622l14.234-8.261 2.989 4.406c4.168 6.373 13.29 15.106 18.795 18.017 15.806 8.34 37.511 7.16 48.206-2.439 4.561-4.17 6.449-8.497 6.449-14.87 0-5.743-.708-8.261-3.696-12.589-3.854-5.507-11.718-10.149-34.052-19.826-25.558-11.015-36.567-17.86-46.633-28.718-5.82-6.294-11.325-16.365-13.605-24.784-1.888-7.002-2.36-24.548-.865-31.629 5.269-24.705 23.906-41.935 50.801-47.05 8.73-1.652 29.019-1.022 37.59 1.102z" fill="#FFF"/></g><path fill="#3F3D56" fill-rule="nonzero" d="M521.91 43.52h44.47v69.37h-44.47z"/><path fill="#000" fill-rule="nonzero" opacity=".1" d="M521.91 43.52h44.47v69.37h-44.47z"/><path d="M451.66 295.2s-4.75 13.05-16 14.83c-11.25 1.78-17.79 4.74-17.79 4.74l26.68 17.19 14.23-1.78s1.78-18.38 7.71-22.53c5.93-4.15-14.83-12.45-14.83-12.45zm192.68 0s4.75 13.05 16 14.83c11.25 1.78 17.79 4.74 17.79 4.74l-26.68 17.19-14.23-1.78s-1.78-18.38-7.71-22.53c-5.93-4.15 14.83-12.45 14.83-12.45z" fill="#A0616A" fill-rule="nonzero"/><path d="M514.5 180.18s-7.11 3.56-9.48 10.68c0 0-13 4.15-20.16 15.41 0 0-8.9 9.49-10.08 14.23-1.18 4.74-14.78 33.2-14.78 33.2s-13.64 44.47-20.75 49.21c0 0 22.53-4.74 26.68 17.79 0 0 5.33 0 11.26-20.75s20.16-46.25 20.16-46.25 4.74-17.78 8.89-20.75c4.15-2.97 10.67-16.6 16.6-13 5.93 3.6 45.06-.6 45.06-.6s23.1 10.64 23.68 17.75c.58 7.11 4.74 7.71 5.33 13.64.59 5.93 22.53 52.76 22.53 52.76s4.15 13 5.34 16c0 0 13-31.42 30.24-13.63 0 0-.6-11.86-5.93-19-5.33-7.14-28.46-62.84-28.46-62.84s-2.37-8.3-4.74-10.67c-2.37-2.37-20.76-21.35-27.28-21.35 0 0-3.55-8.89-7.7-10.08l-66.41-1.75zm-53.36 145.85a28.89 28.89 0 01-28.22-3.79 56.37 56.37 0 00-12.59-7.3c-6.29-2.54-13.81-4.42-16.1-.17-4.15 7.71 50.39 26.68 50.39 26.68s7.12-4.15 6.52-15.42zm173.72 0a28.89 28.89 0 0028.22-3.79 56.37 56.37 0 0112.59-7.3c6.29-2.54 13.81-4.42 16.1-.17 4.15 7.71-50.39 26.68-50.39 26.68s-7.12-4.15-6.52-15.42z" fill="#3F3D56" fill-rule="nonzero"/><path d="M533.88 82.67c-.22 2.06-.9 4.29-2.66 5.38-1.44.9-3.26.83-4.92 1.17a11.46 11.46 0 00-7.82 6.77 17.51 17.51 0 00-.75 10.55c.392 1.719.9 3.41 1.52 5.06 1.74 4.92 3.84 9.8 7.09 13.89a59 59 0 009.3 8.77c2.11 1.72 4.29 3.47 6.89 4.28a21.75 21.75 0 005.4.72c2.25.1 4.65.17 6.6-.95 3-1.73 3.89-5.55 5.52-8.62 1.38-2.6 3.44-4.81 4.73-7.46a29.49 29.49 0 002-6.52l2.77-12.3c1-4.47 1.92-9.51-.59-13.34a2.28 2.28 0 00-.74-.77 2.79 2.79 0 00-1.52-.15 16.44 16.44 0 01-9.15-2.09 3.93 3.93 0 01-1.15-.9 4.72 4.72 0 01-.7-2.12 22.2 22.2 0 00-1.28-4.45 3 3 0 00-.87-1.34 3.15 3.15 0 00-1.41-.47 114.47 114.47 0 00-12.93-1.35c-1.42-.07-3.56-.64-4.54.62s-.67 4.12-.79 5.62z" fill="#A0616A" fill-rule="nonzero"/><path d="M533.88 82.67c-.22 2.06-.9 4.29-2.66 5.38-1.44.9-3.26.83-4.92 1.17a11.46 11.46 0 00-7.82 6.77 17.51 17.51 0 00-.75 10.55c.392 1.719.9 3.41 1.52 5.06 1.74 4.92 3.84 9.8 7.09 13.89a59 59 0 009.3 8.77c2.11 1.72 4.29 3.47 6.89 4.28a21.75 21.75 0 005.4.72c2.25.1 4.65.17 6.6-.95 3-1.73 3.89-5.55 5.52-8.62 1.38-2.6 3.44-4.81 4.73-7.46a29.49 29.49 0 002-6.52l2.77-12.3c1-4.47 1.92-9.51-.59-13.34a2.28 2.28 0 00-.74-.77 2.79 2.79 0 00-1.52-.15 16.44 16.44 0 01-9.15-2.09 3.93 3.93 0 01-1.15-.9 4.72 4.72 0 01-.7-2.12 22.2 22.2 0 00-1.28-4.45 3 3 0 00-.87-1.34 3.15 3.15 0 00-1.41-.47 114.47 114.47 0 00-12.93-1.35c-1.42-.07-3.56-.64-4.54.62s-.67 4.12-.79 5.62z" fill="#000" fill-rule="nonzero" opacity=".1"/><path d="M525.85 89.74a26.93 26.93 0 00-7.13-1.12c-5.72-.14-11.84 1.83-15.14 6.5a15.34 15.34 0 00-2.29 11.47 23.57 23.57 0 005.2 10.66 32 32 0 014 5.24c1.58 3 1.63 6.59 2.06 10 1 8.12 4.46 15.75 5.83 23.82s.19 17.42-6.18 22.55c-1.07.86-2.37 1.77-2.46 3.14-.14 2.19 2.71 3.12 4.9 3.33 6.55.62 13.27 1.23 19.63-.46 2.63-.7 5.17-1.79 7.85-2.29 6.8-1.27 13.64 1.34 20.45 2.59a90.61 90.61 0 0014.91 1.21 7.94 7.94 0 003.43-.45 2.75 2.75 0 001.74-2.74 4.76 4.76 0 00-1.18-2c-3.44-4.25-4.49-9.9-5.43-15.29l-3.15-18.11c-1.69-9.68-3.26-20.2 1.32-28.89 3.29-6.25 9.36-10.65 12.83-16.8a9.84 9.84 0 001.55-6.28c-.52-3.09-3.31-5.3-6.17-6.59a23.21 23.21 0 00-17.42-.64c.1 4.33-1 8.71-1.71 13l-1.21 7a88.83 88.83 0 01-2.71 12.2 12.85 12.85 0 01-2.17 4.42 11.43 11.43 0 01-3.83 2.79 22.83 22.83 0 01-10.14 2.32 13.54 13.54 0 01-4.48-.69 19 19 0 01-6.17-4.34 10.11 10.11 0 01-1.63-1.77 9.93 9.93 0 01-1.11-2.67 55.42 55.42 0 01-1.91-7.48c-.3-1.94-.4-3.91-.54-5.87-.39-5.79-.39-12.19-1.54-17.76z" fill="#6C63FF" fill-rule="nonzero"/><path d="M519.84 204.49s-2.37 31.43 12.45 36.76c14.82 5.33 1.78-26.09 1.78-26.09l-4.75-9.48-9.48-1.19zm50.39 0s2.37 31.43-12.45 36.76c-14.82 5.33-1.78-26.09-1.78-26.09l4.75-9.48 9.48-1.19z" fill="#A0616A" fill-rule="nonzero"/><path d="M506.79 99.59l-4.74 7.71s4.15 26.68 4.74 31.42a62.2 62.2 0 002.38 10.08s.59 14.23.59 19.57 3 14.23 3 14.23a64.82 64.82 0 003 14.82c2.37 6.52 4.74 14.23 4.74 14.23s3-8.3 14.82 4.15a7.18 7.18 0 000-10.08s-3.55-16-3.55-24.31c0-8.31-6.53-48-6.53-48S521 88.29 506.79 99.59z" fill="#000" fill-rule="nonzero" opacity=".1"/><path d="M505.61 98.96l-4.74 7.71s4.15 26.68 4.74 31.42a61.84 61.84 0 002.39 10.08s.59 14.23.59 19.56c0 5.33 3 14.23 3 14.23a64.53 64.53 0 003 14.82c2.37 6.53 4.75 14.23 4.75 14.23s3-8.3 14.82 4.15a7.18 7.18 0 000-10.07s-3.56-16-3.56-24.31c0-8.31-6.52-48-6.52-48s-4.24-45.09-18.47-33.82z" fill="#6C63FF" fill-rule="nonzero"/><path d="M583.87 94.81l3 3.53s3.49 20.18-4.22 45.68l-2.37 23.12s-4.15 19.57-4.74 24.31c-.59 4.74-.59 5.33-1.78 7.11a2.29 2.29 0 000 3l-3.56 13s-5.33-6.52-16 1.78c0 0-3-4.74-.6-8.89s2.37-5.93 1.78-7.12c-.59-1.19 2.37-7.11 2.37-8.3 0-1.19 4.18-28.44 4.18-28.44s1.78-26.68 3.56-35.57c1.09-5.47 1.07-17.66.88-26.24-.19-8.94 10.63-13.78 17-7.5.15.16.33.31.5.53z" fill="#000" fill-rule="nonzero" opacity=".1"/><path d="M585.65 93.59l3 3.53s3.49 20.19-4.22 45.68l-2.37 23.12s-4.15 19.57-4.74 24.31c-.59 4.74-.6 5.34-1.78 7.12a2.28 2.28 0 000 3L572 213.39s-5.33-6.53-16 1.77c0 0-3-4.74-.59-8.89s2.37-5.93 1.78-7.11c-.59-1.18 2.37-7.12 2.37-8.3 0-1.18 4.15-28.46 4.15-28.46s1.78-26.68 3.56-35.58c1.78-8.9.59-35.57.59-35.57s9.49-6.52 17.79 2.34z" fill="#6C63FF" fill-rule="nonzero"/><circle fill="#A0616A" fill-rule="nonzero" cx="545.92" cy="61.61" r="23.72"/><path d="M558.29 26a16.6 16.6 0 01-31.09.44c9.26-3.73 18.72-.41 18.72-.41 4.73-1.66 8.83-1.51 12.37-.03z" fill="#000" fill-rule="nonzero" opacity=".1"/><path d="M545.92 27.22s-45.65-16-34.38 61.66c0 0 10.08 6.52 17.78 2.37 0 0-5.33-53.95 15.42-51.58 20.75 2.37 17.19 50.4 17.19 50.4s11.86 3.55 15.42-3c3.56-6.55-1.19-70.48-31.43-59.85z" fill="#3F3D56" fill-rule="nonzero"/><path d="M544.74 36.11c-14.24-1.62-16.2 23.27-16 39.05.17-15.69 2.81-37 16-35.49 14.81 1.69 17.24 26.66 17.41 40.8.17-12.98-1.25-42.51-17.41-44.36zm-33.2 49.21a159.38 159.38 0 01-1.77-20.53 152.12 152.12 0 001.77 24.09s10.08 6.52 17.78 2.37c0 0-.12-1.28-.26-3.43-7.67 3.87-17.52-2.5-17.52-2.5zm65.81-1.73c-3.32 6.08-13.83 3.41-15.25 3-.07 2.2-.17 3.52-.17 3.52s11.86 3.55 15.42-3c.73-1.34 1.11-5.13 1-10.2-.1 3.25-.45 5.68-1 6.68z" fill="#000" fill-rule="nonzero" opacity=".1"/><path d="M826.73 672.96c4.74-8.78-.64-19.54-6.82-27.37-6.18-7.83-13.73-16-13.57-26 .23-14.35 15.45-22.81 27.62-30.42a134.77 134.77 0 0024.79-19.93c3-3.05 5.87-6.31 7.62-10.21 2.52-5.6 2.45-12 2.29-18.12a1326.14 1326.14 0 00-3-61.34" stroke="#3F3D56" stroke-width="4"/><path d="M888.74 478.49a22.31 22.31 0 00-11.16-18.32l-5 9.9.15-12a22.37 22.37 0 1016 20.41l.01.01zm-39.88 151.39a22.36 22.36 0 111.08-18l-14 11.37 15.37-3.57a22.25 22.25 0 01-2.45 10.2zm-11.05-43.43c-11.327.48-21.221-7.589-23.03-18.78-1.81-11.192 5.04-21.967 15.94-25.08l-.12 9.22 5.06-10h.06a22.37 22.37 0 112.09 44.69v-.05zm54.3-36.13a22.37 22.37 0 119.89-41.86l-4 10.83 8.13-7.8a22.37 22.37 0 01-14.07 38.83h.05z" fill="#6C63FF" fill-rule="nonzero"/><path d="M885.74 484.45c-5.17.57-10.19 2.18-15.37 2.5-5.18.32-10.87-.92-14.14-5-1.77-2.17-2.65-4.91-4.14-7.28a16 16 0 00-5.63-5.3 22.37 22.37 0 1041.81 14.84c-.85.09-1.69.15-2.53.24zm6.37 65.87a22.39 22.39 0 01-21.28-31.91 16.37 16.37 0 014.5 4.51c1.59 2.4 2.56 5.18 4.43 7.39 3.48 4.09 9.44 5.43 14.84 5.19 5.4-.24 10.6-1.78 16-2.28.75-.06 1.5-.11 2.26-.13a22.37 22.37 0 01-20.75 17.23zm-54.3 36.13a22.37 22.37 0 01-21.46-31.49 17.83 17.83 0 014.73 4.55c1.74 2.45 2.82 5.27 4.86 7.54 3.77 4.2 10.11 5.68 15.83 5.54 5.54-.12 10.87-1.48 16.38-1.9a22.36 22.36 0 01-20.34 15.76zm11.05 43.43c-5.385 10.678-18.216 15.232-29.128 10.338-10.912-4.894-16.045-17.505-11.652-28.628a22.27 22.27 0 014.91 4.38c2.13 2.59 3.53 5.53 6 7.94 4.57 4.49 11.95 6.34 18.52 6.51a97.1 97.1 0 0011.35-.54z" fill="#000" fill-rule="nonzero" opacity=".1"/><path d="M793 662.85s17.65-.54 23-4.33c5.35-3.79 27.16-8.31 28.48-2.24 1.32 6.07 26.53 30.22 6.6 30.38-19.93.16-46.31-3.1-51.62-6.34-5.31-3.24-6.46-17.47-6.46-17.47z" fill="#656380" fill-rule="nonzero"/><path d="M851.4 684.59c-19.93.16-46.31-3.11-51.62-6.34-4-2.47-5.65-11.3-6.19-15.38H793s1.12 14.24 6.43 17.47c5.31 3.23 31.69 6.5 51.62 6.34 5.75 0 7.74-2.09 7.63-5.12-.8 1.81-2.99 2.95-7.28 3.03z" fill="#000" fill-rule="nonzero" opacity=".2"/><path d="M323 42.86l-18.25 11.57 11.08-20.15a18 18 0 00-11-3.94h-.3a21.58 21.58 0 01-3.78-.28l-6.19 3.92 2.65-4.82a22.06 22.06 0 01-10.82-8.21l-11.07 7 7-12.72c-6.48-7.77-15.2-12.54-24.81-12.54-11.51 0-21.76 6.85-28.38 17.52a21.24 21.24 0 01-18.76 10.12h-.62c-12.71 0-23 14.41-23 32.19 0 17.78 10.3 32.18 23 32.18a17.2 17.2 0 008-2c8.29-4.31 19.17-4.39 27.85-.54a29 29 0 0023.68.05c8.62-3.77 19.37-3.69 27.61.54a17.23 17.23 0 007.93 2c12.71 0 23-14.41 23-32.18A40.86 40.86 0 00323 42.86z" fill="#F2F2F2" fill-rule="nonzero"/><path d="M288.59 89.95a34 34 0 00-19.72 2.14 29 29 0 01-23.67-.05c-8.69-3.85-19.57-3.77-27.86.54a17.2 17.2 0 01-8 2c-11.29 0-20.68-11.38-22.64-26.38a21.58 21.58 0 005.64-6.08c6.66-10.66 16.87-17.53 28.38-17.53 11.51 0 21.64 6.77 28.26 17.32a21.79 21.79 0 0018.76 10.31h.26c9 .01 16.8 7.22 20.59 17.73z" fill="#000" fill-rule="nonzero" opacity=".03"/><path d="M800.07 66.42L791 72.19l5.53-10a9 9 0 00-5.51-2h-.14a10.79 10.79 0 01-1.89-.14l-3.09 2 1.3-2.46a11 11 0 01-5.4-4.09l-5.52 3.5 3.49-6.34a16.17 16.17 0 00-12.37-6.26c-5.75 0-10.86 3.42-14.16 8.74a10.57 10.57 0 01-9.36 5h-.31c-6.34 0-11.48 7.19-11.48 16 0 8.81 5.14 16.05 11.48 16.05a8.62 8.62 0 004-1 16.56 16.56 0 0113.89-.27 14.52 14.52 0 0011.81 0 16.58 16.58 0 0113.77.27 8.61 8.61 0 004 1c6.34 0 11.48-7.18 11.48-16.05a20.28 20.28 0 00-2.45-9.72z" fill="#F2F2F2" fill-rule="nonzero"/><path d="M782.92 89.91a17 17 0 00-9.83 1.07 14.52 14.52 0 01-11.81 0 16.58 16.58 0 00-13.9.27 8.55 8.55 0 01-4 1c-5.64 0-10.32-5.67-11.3-13.15a10.93 10.93 0 002.82-3c3.3-5.32 8.42-8.73 14.16-8.73s10.79 3.37 14.09 8.63a10.85 10.85 0 009.36 5.14h.15c4.49-.07 8.34 3.53 10.26 8.77z" fill="#000" fill-rule="nonzero" opacity=".03"/><path d="M204.34 215.86l14.66 9.28-8.88-16.15a14.48 14.48 0 018.85-3.15h.23a17.08 17.08 0 003-.22l4.95 3.14-2.15-3.86a17.78 17.78 0 008.67-6.58l8.87 5.62-5.54-10.19c5.19-6.22 12.18-10 19.87-10 9.23 0 17.44 5.48 22.75 14a17 17 0 0015 8.11h.5c10.18 0 18.43 11.54 18.43 25.78 0 14.24-8.25 25.79-18.43 25.79a13.86 13.86 0 01-6.43-1.61 26.59 26.59 0 00-22.31-.43 23.28 23.28 0 01-19 0 26.64 26.64 0 00-22.12.43 13.9 13.9 0 01-6.35 1.57c-10.19 0-18.44-11.54-18.44-25.79a32.78 32.78 0 013.87-15.74z" fill="#F2F2F2" fill-rule="nonzero"/><path d="M231.89 253.59a27.36 27.36 0 0115.8 1.72 23.28 23.28 0 0019 0 26.61 26.61 0 0122.32.43 13.82 13.82 0 006.42 1.61c9.05 0 16.57-9.11 18.14-21.13a17.44 17.44 0 01-4.52-4.88c-5.31-8.54-13.52-14-22.75-14s-17.33 5.42-22.64 13.88a17.44 17.44 0 01-15 8.25h-.23c-7.26-.07-13.5 5.71-16.54 14.12z" fill="#000" fill-rule="nonzero" opacity=".03"/></g></svg>