<?xml version="1.0" encoding="UTF-8"?>
<svg width="499px" height="499px" viewBox="0 0 499 499" version="1.1" xmlns="http://www.w3.org/2000/svg" xmlns:xlink="http://www.w3.org/1999/xlink">
    <!-- Generator: Sketch 53.2 (72643) - https://sketchapp.com -->
    <title>Untitled 7</title>
    <desc>Created with Sketch.</desc>
    <g id="Page-1" stroke="none" stroke-width="1" fill="none" fill-rule="evenodd">
        <g id="undraw_buffer_wq43" fill="#192534" fill-rule="nonzero">
            <path d="M9.3,131 L228.73,237 C234.44,239.72 242.09,241.15 249.61,241.15 C257.13,241.15 264.78,239.72 270.49,237 L489.92,131 C501.47,125.42 501.47,116.34 489.92,110.77 L270.49,4.77 C264.78,2.05 257.13,0.62 249.61,0.62 C242.09,0.62 234.44,2.05 228.73,4.77 L9.3,110.77 C-2.21,116.34 -2.21,125.42 9.3,131 Z" id="Path"></path>
            <path d="M489.92,239.55 C489.92,239.55 449.85,220.23 444.53,217.63 C439.21,215.03 437.79,215.17 432.21,217.76 C426.63,220.35 270.36,295.88 270.36,295.88 C264.52,298.61 257,300.03 249.48,300.03 C241.96,300.03 234.31,298.61 228.6,295.88 C228.6,295.88 76.47,222.48 69.34,218.98 C61.56,215.22 59.34,215.22 52.34,218.59 L9.03,239.47 C-2.52,245.05 -2.52,254.12 9.03,259.7 L228.46,365.7 C234.17,368.42 241.82,369.85 249.34,369.85 C256.86,369.85 264.51,368.42 270.22,365.7 L489.65,259.7 C501.46,254.25 501.46,245.18 489.91,239.6 L489.92,239.55 Z" id="Path"></path>
            <path d="M489.92,368.33 C489.92,368.33 449.85,349.01 444.53,346.41 C439.21,343.81 437.79,343.95 432.21,346.54 C426.63,349.13 270.49,424.74 270.49,424.74 C264.65,427.47 257.13,428.9 249.61,428.9 C242.09,428.9 234.44,427.47 228.73,424.74 C228.73,424.74 76.6,351.34 69.47,347.84 C61.69,344.08 59.47,344.08 52.47,347.45 L9.16,368.33 C-2.39,373.91 -2.39,382.99 9.16,388.56 L228.59,494.56 C234.3,497.41 241.95,498.71 249.47,498.71 C256.99,498.71 264.64,497.28 270.35,494.56 L489.79,388.56 C501.47,382.99 501.47,373.91 489.92,368.33 L489.92,368.33 Z" id="Path"></path>
        </g>
    </g>
</svg>