<?xml version="1.0" encoding="UTF-8"?>
<svg width="1108px" height="732px" viewBox="0 0 1108 732" version="1.1" xmlns="http://www.w3.org/2000/svg" xmlns:xlink="http://www.w3.org/1999/xlink">
    <!-- Generator: Sketch 53.2 (72643) - https://sketchapp.com -->
    <title>Untitled 10</title>
    <desc>Created with Sketch.</desc>
    <g id="Page-1" stroke="none" stroke-width="1" fill="none" fill-rule="evenodd">
        <g id="undraw_react_y7wq">
            <path d="M767.68,330.79 L774.57,328.09 C775.23,327.83 775.88,327.55 776.57,327.28 C750.306806,317.610127 734.251576,291.030727 737.91368,263.284542 C741.575783,235.538356 763.977295,214.034702 791.85,211.51 L787.05,235.71 L805.27,211.79 L805.43,211.79 C838.180745,216.292637 861.083565,246.488009 856.59,279.24 C856.44,280.37 856.2,281.47 855.99,282.58 C861.6,278.15 866.86,273.26 870.8,267.58 C878.8,256.04 881.51,241.82 884.27,224.41 C889.74,189.93 894.67,155.07 899.11,120.23 C870.944876,111.732307 853.13683,84.019596 857.11,54.87 C857.36,53.05 857.71,51.28 858.11,49.53 C858.21,49.09 858.31,48.65 858.42,48.22 C858.85,46.53 859.33,44.87 859.89,43.22 C859.98,42.95 860.1,42.7 860.19,42.44 C860.69,41.07 861.19,39.72 861.84,38.44 C862.06,37.94 862.28,37.44 862.51,36.97 C863.2,35.54 863.93,34.14 864.73,32.78 C865,32.33 865.29,31.9 865.56,31.45 C866.18,30.45 866.83,29.45 867.5,28.52 C867.86,28.02 868.21,27.52 868.58,27.03 L868.85,26.64 L868.85,26.64 C886.370436,3.70820666 917.766917,-3.44265314 943.49,9.64 L937.25,41.13 L955.25,17.49 C975.122485,34.3260089 981.735172,62.1300888 971.57,86.11 L971.64,86.11 C971.47,86.51 971.26,86.89 971.09,87.29 C970.76,88.03 970.42,88.76 970.09,89.49 C969.63,90.42 969.09,91.33 968.64,92.23 C968.26,92.91 967.89,93.59 967.48,94.23 C966.89,95.23 966.25,96.13 965.61,97.06 C965.23,97.6 964.88,98.16 964.49,98.69 C963.49,100.08 962.37,101.41 961.23,102.69 C960.83,103.14 960.4,103.55 959.98,103.99 C959.17,104.85 958.36,105.7 957.5,106.51 C956.97,107.01 956.41,107.51 955.86,107.97 C955.07,108.67 954.26,109.35 953.43,109.97 C952.84,110.44 952.24,110.89 951.64,111.33 C950.77,111.96 949.89,112.55 949,113.14 C948.4,113.53 947.8,113.92 947.19,114.29 C946.19,114.9 945.14,115.46 944.09,116.01 C943.56,116.28 943.09,116.58 942.5,116.84 C940.92,117.61 939.3,118.32 937.65,118.95 C937.34,119.07 937.01,119.16 936.7,119.27 C935.32,119.77 933.93,120.27 932.52,120.62 C931.91,120.79 931.29,120.93 930.67,121.08 C929.52,121.36 928.36,121.62 927.19,121.84 C926.523333,121.96 925.833333,122.07 925.12,122.17 C923.97,122.34 922.81,122.47 921.64,122.57 C920.95,122.63 920.27,122.69 919.57,122.73 C918.31,122.79 917.04,122.8 915.77,122.79 C915.686742,122.784987 915.603258,122.784987 915.52,122.79 C913.64,137.456667 911.666667,152.123333 909.6,166.79 C919.401367,153.557792 934.223868,144.95109 950.574522,142.998095 C966.925177,141.0451 983.357808,145.918551 996,156.47 L980.32,183.05 L1005.53,166.46 C1015.06182,179.075412 1019.19786,194.957797 1017.03,210.62 C1016.29013,216.11915 1014.77508,221.485785 1012.53,226.56 C1002.6827,249.041848 980.10367,263.2292 955.57564,262.346818 C931.04761,261.464435 909.546393,245.69132 901.34,222.56 C901.11,224.04 900.89,225.56 900.66,227.02 C898.22,242.37 895.19,261.48 884.43,277.02 C877.14,287.58 867.1,295.38 857.34,302.24 C850.993333,306.706667 844.5,310.963333 837.86,315.01 C830.890382,321.472864 822.481708,326.182818 813.33,328.75 C802.663333,334.21 791.766667,339.146667 780.64,343.56 L773.69,346.28 C767.44,348.72 761.04,351.22 754.69,353.88 C755.69,353.97 756.69,354.05 757.69,354.18 C783.508326,357.725375 804.071793,377.557031 808.55,403.23 L766.24,426.34 L808.42,424.45 C806.731391,433.803059 802.814194,442.611605 797,450.13 C777.167067,475.803258 740.494468,481.009259 714.3,461.87 L716.4,465.78 C717.8,468.36 719.18,470.93 720.52,473.48 C738.85,508.22 740.18,538.22 724.27,557.97 L711.27,547.52 C726.76,528.3 714.47,497.75 705.77,481.25 C704.45,478.75 703.09,476.25 701.77,473.69 C690,451.86 676.65,427.12 682,400.79 C690,361.09 733.05,344.29 767.68,330.79 Z" id="Path" fill="#F2F2F2" fill-rule="nonzero"></path>
            <path d="M269.6,519.01 L264.22,516.9 C263.7,516.7 263.22,516.47 262.68,516.27 C283.183109,508.708676 295.712573,487.952341 292.851717,466.287471 C289.990862,444.6226 272.503053,427.830059 250.74,425.85 L254.49,444.75 L240.27,426.07 L240.14,426.07 C227.848505,427.748528 216.727786,434.242625 209.225756,444.122799 C201.723726,454.002973 198.455325,466.459346 200.14,478.75 C200.26,479.64 200.45,480.49 200.61,481.36 C196.198087,478.042848 192.302394,474.089866 189.05,469.63 C182.82,460.63 180.68,449.51 178.52,435.92 C174.29,408.99 170.45,381.77 167,354.59 C188.98772,347.943043 202.881633,326.298726 199.77,303.54 C199.57,302.12 199.3,300.74 198.98,299.37 L198.74,298.37 C198.4,297.05 198.03,295.75 197.59,294.49 C197.52,294.28 197.43,294.08 197.35,293.88 C196.96,292.81 196.53,291.76 196.07,290.73 C195.89,290.35 195.72,289.96 195.54,289.58 C195,288.47 194.43,287.38 193.81,286.32 C193.6,285.96 193.37,285.62 193.16,285.32 C192.67,284.54 192.16,283.77 191.64,283.03 C191.36,282.64 191.09,282.24 190.8,281.86 L190.59,281.56 L190.59,281.56 C176.907904,263.654473 152.401273,258.054399 132.3,268.24 L137.18,292.84 L123.11,274.38 C107.59219,287.529414 102.426593,309.24113 110.36,327.97 L110.31,327.97 C110.44,328.28 110.6,328.58 110.74,328.89 C111,329.47 111.26,330.04 111.54,330.61 C111.9,331.33 112.28,332.04 112.68,332.74 C112.97,333.28 113.26,333.81 113.58,334.33 C114.04,335.08 114.58,335.81 115.04,336.54 C115.34,336.96 115.61,337.4 115.92,337.81 C116.72,338.89 117.57,339.93 118.46,340.94 C118.77,341.29 119.11,341.61 119.46,341.94 C120.09,342.61 120.73,343.27 121.4,343.94 C121.81,344.34 122.25,344.71 122.68,345.08 C123.3,345.633333 123.93,346.163333 124.57,346.67 C125.03,347.03 125.5,347.38 125.97,347.73 C126.65,348.22 127.34,348.73 128.03,349.14 C128.5,349.45 128.97,349.75 129.45,350.04 C130.24,350.52 131.05,350.95 131.87,351.38 C132.29,351.6 132.69,351.83 133.11,352.04 C134.35,352.64 135.61,353.19 136.9,353.68 C137.14,353.78 137.4,353.84 137.64,353.93 C138.71,354.32 139.8,354.68 140.91,354.99 C141.38,355.12 141.91,355.23 142.35,355.34 C143.25,355.56 144.15,355.77 145.07,355.94 L146.68,356.2 C147.58,356.33 148.49,356.43 149.4,356.51 C149.94,356.56 150.47,356.6 151.02,356.63 C152.02,356.68 153.02,356.69 154.02,356.68 L154.21,356.68 C155.676667,368.16 157.216667,379.63 158.83,391.09 C151.189011,380.740785 139.618044,374.001019 126.846302,372.460385 C114.07456,370.919751 101.232814,374.714652 91.35,382.95 L103.49,403.59 L83.81,390.64 C76.3548054,400.4882 73.1173829,412.894722 74.81,425.13 C75.3905661,429.429565 76.5791115,433.624828 78.34,437.59 C86.0318462,455.146545 103.664908,466.225601 122.820146,465.537389 C141.975384,464.849177 158.767908,452.533274 165.18,434.47 C165.36,435.62 165.53,436.79 165.71,437.95 C167.61,449.95 169.98,464.87 178.38,477.03 C184.08,485.27 191.92,491.36 199.54,496.72 C204.5,500.213333 209.57,503.546667 214.75,506.72 C220.196043,511.766778 226.762942,515.447807 233.91,517.46 C242.23,521.72 250.75,525.6 259.45,529.02 L264.87,531.15 C269.75,533.05 274.75,535 279.68,537.08 C278.9,537.15 278.11,537.21 277.32,537.32 C257.166335,540.081423 241.108655,555.552909 237.6,575.59 L270.6,593.59 L237.66,592.12 C240.60765,607.914444 251.454723,621.091006 266.388597,627.018274 C281.322471,632.945542 298.253266,630.794041 311.23,621.32 C310.68,622.32 310.14,623.32 309.59,624.37 C308.5,626.37 307.42,628.37 306.37,630.37 C292.06,657.5 291.02,680.94 303.45,696.37 L313.58,688.21 C301.48,673.21 311.08,649.34 317.88,636.45 C318.88,634.5 319.97,632.53 321.04,630.55 C330.23,613.55 340.65,594.18 336.5,573.61 C330.29,542.67 296.64,529.59 269.6,519.01 Z" id="Path" fill="#F2F2F2" fill-rule="nonzero"></path>
            <ellipse id="Oval" fill="#3F3D56" fill-rule="nonzero" cx="554" cy="707.68" rx="554" ry="23.5"></ellipse>
            <ellipse id="Oval" fill="#000000" fill-rule="nonzero" opacity="0.1" cx="554" cy="707.68" rx="554" ry="23.5"></ellipse>
            <ellipse id="Oval" fill="#3F3D56" fill-rule="nonzero" cx="554" cy="694.68" rx="554" ry="23.5"></ellipse>
            <path d="M85,686.32 C82,680.81 85.4,674.06 89.28,669.14 C93.16,664.22 97.89,659.14 97.79,652.85 C97.65,643.85 88.09,638.54 80.46,633.77 C74.7987147,630.227405 69.5758412,626.028295 64.9,621.26 C62.9455686,619.421801 61.3278425,617.255808 60.12,614.86 C58.54,611.34 58.59,607.34 58.69,603.48 C59.0233333,590.64 59.6566667,577.813333 60.59,565" id="Path" stroke="#3F3D56" stroke-width="4"></path>
            <path d="M46.11,564.29 C46.329435,559.51633 48.9686086,555.184315 53.11,552.8 L56.25,559.01 L56.16,551.49 C57.6574299,551.044274 59.2194444,550.854939 60.78,550.93 C68.4948701,551.307312 74.446547,557.861564 74.0803784,565.576971 C73.7142099,573.292378 67.1685601,579.253515 59.4526323,578.89849 C51.7367045,578.543466 45.7661198,572.006433 46.11,564.29 L46.11,564.29 Z" id="Path" fill="#6C63FF" fill-rule="nonzero"></path>
            <path d="M71.14,659.29 C74.0086755,664.999731 80.3793769,668.042578 86.6234405,666.685377 C92.8675041,665.328177 97.4002958,659.915363 97.64,653.53 C97.7398403,651.590462 97.4297678,649.651657 96.73,647.84 C94.6696789,642.350117 89.4063914,638.725855 83.5427218,638.759336 C77.6790521,638.792818 72.4574951,642.476947 70.46,647.99 L79.23,655.12 L69.59,652.88 C69.5845931,655.110115 70.1162434,657.308746 71.14,659.29 L71.14,659.29 Z" id="Path" fill="#6C63FF" fill-rule="nonzero"></path>
            <path d="M78.07,632.04 C85.3202872,632.58849 91.7836724,627.495472 92.9460406,620.317979 C94.1084087,613.140486 89.5828172,606.267845 82.53,604.5 L82.6,610.29 L79.42,604 L79.42,604 C71.6742064,603.638253 65.1017465,609.624206 64.74,617.37 C64.3782535,625.115794 70.3642064,631.688253 78.11,632.05 L78.07,632.04 Z" id="Path" fill="#6C63FF" fill-rule="nonzero"></path>
            <path d="M44,609.37 C49.0017183,609.605795 53.7492918,607.155294 56.4543557,602.941577 C59.1594195,598.727859 59.4110101,593.391089 57.1143557,588.941577 C54.8177012,584.492064 50.3217183,581.605795 45.32,581.37 C42.6953731,581.239498 40.0876235,581.856758 37.8,583.15 L40.28,589.95 L35.17,585.05 C32.4369544,587.55309 30.8079119,591.03773 30.64,594.74 C30.5722368,596.034009 30.6935124,597.330985 31,598.59 C32.4342095,604.68668 37.743201,609.089059 44,609.37 L44,609.37 Z" id="Path" fill="#6C63FF" fill-rule="nonzero"></path>
            <path d="M48,568.03 C51.24,568.39 54.39,569.4 57.64,569.6 C60.89,569.8 64.46,569.02 66.52,566.5 C67.63,565.13 68.18,563.41 69.11,561.93 C70.0007386,560.547887 71.2160621,559.404658 72.65,558.6 C74.9602155,563.429131 74.3143568,569.152905 70.9861146,573.345804 C67.6578724,577.538703 62.2299854,579.466596 57.002587,578.312514 C51.7751885,577.158433 47.663539,573.124444 46.41,567.92 C46.94,567.94 47.47,567.98 48,568.03 Z" id="Path" fill="#000000" fill-rule="nonzero" opacity="0.1"></path>
            <path d="M44,609.37 C48.9240036,609.61984 53.6164357,607.261217 56.3536605,603.160506 C59.0908852,599.059795 59.4693362,593.821589 57.35,589.37 C56.2359401,590.122221 55.278273,591.083284 54.53,592.2 C53.53,593.71 52.92,595.45 51.75,596.84 C49.56,599.41 45.83,600.25 42.44,600.09 C39.05,599.93 35.78,598.98 32.44,598.67 C31.97,598.67 31.5,598.59 31.03,598.58 C32.4572921,604.670337 37.7516226,609.074795 44,609.37 L44,609.37 Z" id="Path" fill="#000000" fill-rule="nonzero" opacity="0.1"></path>
            <path d="M78.07,632.04 C82.9483936,632.290573 87.6046525,629.980292 90.3560738,625.944057 C93.107495,621.907822 93.5561874,616.729326 91.54,612.28 C90.3739529,613.038325 89.3570868,614.004348 88.54,615.13 C87.45,616.67 86.77,618.44 85.54,619.86 C83.18,622.5 79.2,623.43 75.61,623.34 C72.02,623.25 68.79,622.41 65.33,622.15 C67.0604582,627.807346 72.1602511,631.76629 78.07,632.04 L78.07,632.04 Z" id="Path" fill="#000000" fill-rule="nonzero" opacity="0.1"></path>
            <path d="M71.14,659.29 C74.0086755,664.999731 80.3793769,668.042578 86.6234405,666.685377 C92.8675041,665.328177 97.4002958,659.915363 97.64,653.53 C97.7398403,651.590462 97.4297678,649.651657 96.73,647.84 C95.5737532,648.596348 94.5358373,649.519688 93.65,650.58 C92.31,652.21 91.44,654.05 89.89,655.58 C87.02,658.4 82.39,659.58 78.27,659.67 C75.8880258,659.679633 73.5074568,659.552758 71.14,659.29 Z" id="Path" fill="#000000" fill-rule="nonzero" opacity="0.1"></path>
            <path d="M106.19,679.98 C106.19,679.98 95.11,679.64 91.78,677.26 C88.45,674.88 74.78,672.04 73.91,675.86 C73.04,679.68 57.26,694.86 69.77,694.92 C82.28,694.98 98.83,692.92 102.16,690.92 C105.49,688.92 106.19,679.98 106.19,679.98 Z" id="Path" fill="#656380" fill-rule="nonzero"></path>
            <path d="M69.54,693.59 C82.05,693.69 98.6,691.59 101.94,689.59 C104.47,688.05 105.48,682.5 105.82,679.94 L106.19,679.94 C106.19,679.94 105.49,688.87 102.19,690.94 C98.89,693.01 82.3,695.02 69.8,694.94 C66.19,694.94 64.94,693.63 65.01,691.72 C65.48,692.85 66.86,693.59 69.54,693.59 Z" id="Path" fill="#000000" fill-rule="nonzero" opacity="0.2"></path>
            <path d="M1055,695.32 C1052,689.81 1055.4,683.06 1059.28,678.14 C1063.16,673.22 1067.89,668.14 1067.79,661.85 C1067.65,652.85 1058.09,647.54 1050.46,642.77 C1044.79871,639.227405 1039.57584,635.028295 1034.9,630.26 C1032.94557,628.421801 1031.32784,626.255808 1030.12,623.86 C1028.54,620.34 1028.59,616.34 1028.69,612.48 C1029.01667,599.64 1029.65,586.813333 1030.59,574" id="Path" stroke="#3F3D56" stroke-width="4"></path>
            <path d="M1016.11,573.29 C1016.32943,568.51633 1018.96861,564.184315 1023.11,561.8 L1026.25,568.01 L1026.16,560.49 C1027.65743,560.044274 1029.21944,559.854939 1030.78,559.93 C1038.49324,560.312749 1044.43977,566.869095 1044.07009,574.582968 C1043.70041,582.296842 1037.15414,588.254477 1029.43966,587.897861 C1021.72517,587.541244 1015.75645,581.005082 1016.1,573.29 L1016.11,573.29 Z" id="Path" fill="#6C63FF" fill-rule="nonzero"></path>
            <path d="M1041.14,668.29 C1044.00868,673.999731 1050.37938,677.042578 1056.62344,675.685377 C1062.8675,674.328177 1067.4003,668.915363 1067.64,662.53 C1067.73984,660.590462 1067.42977,658.651657 1066.73,656.84 C1064.66968,651.350117 1059.40639,647.725855 1053.54272,647.759336 C1047.67905,647.792818 1042.4575,651.476947 1040.46,656.99 L1049.23,664.12 L1039.59,661.88 C1039.58459,664.110115 1040.11624,666.308746 1041.14,668.29 Z" id="Path" fill="#6C63FF" fill-rule="nonzero"></path>
            <path d="M1048.07,641.04 C1055.32029,641.58849 1061.78367,636.495472 1062.94604,629.317979 C1064.10841,622.140486 1059.58282,615.267845 1052.53,613.5 L1052.6,619.29 L1049.42,613 L1049.42,613 C1041.67421,612.638253 1035.10175,618.624206 1034.74,626.37 C1034.37825,634.115794 1040.36421,640.688253 1048.11,641.05 L1048.07,641.04 Z" id="Path" fill="#6C63FF" fill-rule="nonzero"></path>
            <path d="M1014,618.37 C1021.73199,618.734508 1028.29549,612.761986 1028.66,605.03 C1029.02451,597.298014 1023.05199,590.734508 1015.32,590.37 C1012.69537,590.239498 1010.08762,590.856758 1007.8,592.15 L1010.28,598.95 L1005.17,594.05 C1002.43695,596.55309 1000.80791,600.03773 1000.64,603.74 C1000.57224,605.034009 1000.69351,606.330985 1001,607.59 C1002.43421,613.68668 1007.7432,618.089059 1014,618.37 L1014,618.37 Z" id="Path" fill="#6C63FF" fill-rule="nonzero"></path>
            <path d="M1018,577.03 C1021.24,577.39 1024.39,578.4 1027.64,578.6 C1030.89,578.8 1034.46,578.02 1036.52,575.5 C1037.63,574.13 1038.18,572.41 1039.11,570.93 C1040.00074,569.547887 1041.21606,568.404658 1042.65,567.6 C1044.96022,572.429131 1044.31436,578.152905 1040.98611,582.345804 C1037.65787,586.538703 1032.22999,588.466596 1027.00259,587.312514 C1021.77519,586.158433 1017.66354,582.124444 1016.41,576.92 C1016.94,576.94 1017.47,576.98 1018,577.03 Z" id="Path" fill="#000000" fill-rule="nonzero" opacity="0.1"></path>
            <path d="M1014,618.37 C1018.924,618.61984 1023.61644,616.261217 1026.35366,612.160506 C1029.09089,608.059795 1029.46934,602.821589 1027.35,598.37 C1026.23594,599.122221 1025.27827,600.083284 1024.53,601.2 C1023.53,602.71 1022.92,604.45 1021.75,605.84 C1019.56,608.41 1015.83,609.25 1012.44,609.09 C1009.05,608.93 1005.78,607.98 1002.44,607.67 C1001.97,607.67 1001.5,607.59 1001.03,607.58 C1002.45729,613.670337 1007.75162,618.074795 1014,618.37 Z" id="Path" fill="#000000" fill-rule="nonzero" opacity="0.1"></path>
            <path d="M1048.07,641.04 C1052.94839,641.290573 1057.60465,638.980292 1060.35607,634.944057 C1063.1075,630.907822 1063.55619,625.729326 1061.54,621.28 C1060.37395,622.038325 1059.35709,623.004348 1058.54,624.13 C1057.45,625.67 1056.77,627.44 1055.54,628.86 C1053.18,631.5 1049.2,632.43 1045.61,632.34 C1042.02,632.25 1038.79,631.41 1035.33,631.15 C1037.06046,636.807346 1042.16025,640.76629 1048.07,641.04 Z" id="Path" fill="#000000" fill-rule="nonzero" opacity="0.1"></path>
            <path d="M1041.14,668.29 C1044.00868,673.999731 1050.37938,677.042578 1056.62344,675.685377 C1062.8675,674.328177 1067.4003,668.915363 1067.64,662.53 C1067.73984,660.590462 1067.42977,658.651657 1066.73,656.84 C1065.57375,657.596348 1064.53584,658.519688 1063.65,659.58 C1062.31,661.21 1061.44,663.05 1059.89,664.58 C1057.02,667.4 1052.39,668.58 1048.27,668.67 C1045.88803,668.679633 1043.50746,668.552758 1041.14,668.29 L1041.14,668.29 Z" id="Path" fill="#000000" fill-rule="nonzero" opacity="0.1"></path>
            <path d="M1076.19,688.98 C1076.19,688.98 1065.11,688.64 1061.78,686.26 C1058.45,683.88 1044.78,681.04 1043.91,684.86 C1043.04,688.68 1027.26,703.86 1039.77,703.92 C1052.28,703.98 1068.83,701.92 1072.16,699.92 C1075.49,697.92 1076.19,688.98 1076.19,688.98 Z" id="Path" fill="#656380" fill-rule="nonzero"></path>
            <path d="M1039.54,702.59 C1052.05,702.69 1068.6,700.59 1071.94,698.59 C1074.47,697.05 1075.48,691.5 1075.82,688.94 L1076.19,688.94 C1076.19,688.94 1075.49,697.87 1072.19,699.94 C1068.89,702.01 1052.3,704.02 1039.8,703.94 C1036.19,703.94 1034.94,702.63 1035.01,700.72 C1035.48,701.85 1036.86,702.59 1039.54,702.59 Z" id="Path" fill="#000000" fill-rule="nonzero" opacity="0.2"></path>
            <path d="M559.26,20.4 C559.26,29.5679268 551.827927,37 542.66,37 C533.492073,37 526.06,29.5679268 526.06,20.4 C526.06,11.2320732 533.492073,3.8 542.66,3.8 C547.069121,3.77859612 551.303843,5.52064558 554.421599,8.63840133 C557.539354,11.7561571 559.281404,15.9908795 559.26,20.4 Z" id="Path" fill="#3F3D56" fill-rule="nonzero"></path>
            <path d="M529.4,24.59 C526.728128,19.7616873 526.626983,13.9220611 529.130045,9.00411598 C531.633106,4.08617084 536.41393,0.731295978 541.89,0.05 C535.655251,-0.168342323 529.824505,3.1274035 526.796088,8.58161762 C523.76767,14.0358317 524.052981,20.7274789 527.534665,25.9041229 C531.016348,31.080767 537.106464,33.868245 543.3,33.12 C537.493048,32.9055328 532.220984,29.6702298 529.4,24.59 L529.4,24.59 Z" id="Path" fill="#3F3D56" fill-rule="nonzero"></path>
            <g id="typescript-seeklogo.com" transform="translate(292.000000, 204.000000)" fill-rule="nonzero">
                <polygon id="Path" fill="#007ACC" transform="translate(247.500000, 247.500000) scale(-1, 1) rotate(-180.000000) translate(-247.500000, -247.500000) " points="0 247.5 0 0 247.5 0 495 0 495 247.5 495 495 247.5 495 0 495"></polygon>
                <path d="M283.843245,432.532349 L284,412.242031 L251.864866,412.242031 L219.729731,412.242031 L219.729731,320.621015 L219.729731,229 L197.000001,229 L174.270271,229 L174.270271,320.621015 L174.270271,412.242031 L142.135135,412.242031 L110,412.242031 L110,432.139127 C110,443.149376 110.235135,452.350801 110.548649,452.586735 C110.783784,452.901315 149.894595,453.058602 197.313514,452.979959 L283.608109,452.744025 L283.843245,432.532349 Z" id="Path" fill="#FFFFFF" transform="translate(197.000000, 341.000000) rotate(-180.000000) translate(-197.000000, -341.000000) "></path>
                <path d="M399.200471,452.959806 C411.782915,449.812667 421.377028,444.226495 430.184738,435.099794 C434.745875,430.221729 441.508938,421.331062 442.059419,419.206743 C442.2167,418.577314 420.669266,404.100477 407.61498,395.996594 C407.143138,395.68188 405.255772,397.72752 403.132484,400.874659 C396.762623,410.158719 390.078201,414.171321 379.854965,414.879427 C364.834673,415.902247 355.16192,408.0344 355.24056,394.895095 C355.24056,391.039851 355.791041,388.758174 357.363848,385.611037 C360.666738,378.766009 366.800679,374.67473 386.067547,366.334812 C421.534309,351.071188 436.711881,341.000345 446.148713,326.680863 C456.686509,310.709134 459.045718,285.217311 451.889452,266.255799 C444.025426,245.642041 424.522639,231.637273 397.077185,226.995244 C388.584034,225.500352 368.452124,225.736388 359.329855,227.388635 C339.433866,230.929168 320.560201,240.763976 308.921441,253.667245 C304.360304,258.702667 295.473954,271.84197 296.024437,272.786111 C296.260356,273.100826 298.305003,274.359682 300.585571,275.697215 C302.787499,276.956071 311.123367,281.755457 318.987394,286.318809 L333.221284,294.580047 L336.209614,290.174054 C340.377549,283.801097 349.499821,275.067788 355.004639,272.156684 C370.811333,263.816766 392.516048,264.996943 403.211124,274.595718 C407.772261,278.765675 409.659628,283.092992 409.659628,289.465948 C409.659628,295.209476 408.951866,297.727186 405.963535,302.054503 C402.11016,307.561995 394.246133,312.204026 371.912297,321.881477 C346.35421,332.896463 335.344571,339.741489 325.278616,350.599118 C319.459237,356.893396 313.954417,366.964239 311.67385,375.382836 C309.786484,382.38522 309.314641,399.930517 310.808807,407.01158 C316.077704,431.716619 334.715448,448.947204 361.610421,454.061305 C370.339493,455.713552 390.628682,455.084123 399.200471,452.959806 Z" id="Path" fill="#FFFFFF" transform="translate(376.000000, 340.500000) scale(-1, 1) rotate(-180.000000) translate(-376.000000, -340.500000) "></path>
            </g>
            <rect id="Rectangle" fill="#3F3D56" fill-rule="nonzero" x="521.91" y="43.52" width="44.47" height="69.37"></rect>
            <rect id="Rectangle" fill="#000000" fill-rule="nonzero" opacity="0.1" x="521.91" y="43.52" width="44.47" height="69.37"></rect>
            <path d="M451.66,295.2 C451.66,295.2 446.91,308.25 435.66,310.03 C424.41,311.81 417.87,314.77 417.87,314.77 L444.55,331.96 L458.78,330.18 C458.78,330.18 460.56,311.8 466.49,307.65 C472.42,303.5 451.66,295.2 451.66,295.2 Z" id="Path" fill="#A0616A" fill-rule="nonzero"></path>
            <path d="M644.34,295.2 C644.34,295.2 649.09,308.25 660.34,310.03 C671.59,311.81 678.13,314.77 678.13,314.77 L651.45,331.96 L637.22,330.18 C637.22,330.18 635.44,311.8 629.51,307.65 C623.58,303.5 644.34,295.2 644.34,295.2 Z" id="Path" fill="#A0616A" fill-rule="nonzero"></path>
            <path d="M514.5,180.18 C514.5,180.18 507.39,183.74 505.02,190.86 C505.02,190.86 492.02,195.01 484.86,206.27 C484.86,206.27 475.96,215.76 474.78,220.5 C473.6,225.24 460,253.7 460,253.7 C460,253.7 446.36,298.17 439.25,302.91 C439.25,302.91 461.78,298.17 465.93,320.7 C465.93,320.7 471.26,320.7 477.19,299.95 C483.12,279.2 497.35,253.7 497.35,253.7 C497.35,253.7 502.09,235.92 506.24,232.95 C510.39,229.98 516.91,216.35 522.84,219.95 C528.77,223.55 567.9,219.35 567.9,219.35 C567.9,219.35 591,229.99 591.58,237.1 C592.16,244.21 596.32,244.81 596.91,250.74 C597.5,256.67 619.44,303.5 619.44,303.5 C619.44,303.5 623.59,316.5 624.78,319.5 C624.78,319.5 637.78,288.08 655.02,305.87 C655.02,305.87 654.42,294.01 649.09,286.87 C643.76,279.73 620.63,224.03 620.63,224.03 C620.63,224.03 618.26,215.73 615.89,213.36 C613.52,210.99 595.13,192.01 588.61,192.01 C588.61,192.01 585.06,183.12 580.91,181.93 L514.5,180.18 Z" id="Path" fill="#3F3D56" fill-rule="nonzero"></path>
            <path d="M461.14,326.03 C451.720689,329.811749 441.007744,328.37298 432.92,322.24 C429.056395,319.272877 424.824468,316.8191 420.33,314.94 C414.04,312.4 406.52,310.52 404.23,314.77 C400.08,322.48 454.62,341.45 454.62,341.45 C454.62,341.45 461.74,337.3 461.14,326.03 Z" id="Path" fill="#3F3D56" fill-rule="nonzero"></path>
            <path d="M634.86,326.03 C644.279311,329.811749 654.992256,328.37298 663.08,322.24 C666.943605,319.272877 671.175532,316.8191 675.67,314.94 C681.96,312.4 689.48,310.52 691.77,314.77 C695.92,322.48 641.38,341.45 641.38,341.45 C641.38,341.45 634.26,337.3 634.86,326.03 Z" id="Path" fill="#3F3D56" fill-rule="nonzero"></path>
            <path d="M533.88,82.67 C533.66,84.73 532.98,86.96 531.22,88.05 C529.78,88.95 527.96,88.88 526.3,89.22 C522.765266,90.105094 519.862121,92.6184305 518.48,95.99 C517.148493,99.3452849 516.88654,103.030097 517.73,106.54 C518.122355,108.258915 518.630174,109.949416 519.25,111.6 C520.99,116.52 523.09,121.4 526.34,125.49 C529.113233,128.741519 532.23153,131.682107 535.64,134.26 C537.75,135.98 539.93,137.73 542.53,138.54 C544.292711,139.005368 546.106938,139.247265 547.93,139.26 C550.18,139.36 552.58,139.43 554.53,138.31 C557.53,136.58 558.42,132.76 560.05,129.69 C561.43,127.09 563.49,124.88 564.78,122.23 C565.696571,120.141326 566.367725,117.953366 566.78,115.71 L569.55,103.41 C570.55,98.94 571.47,93.9 568.96,90.07 C568.77777,89.7583693 568.524147,89.4944638 568.22,89.3 C567.73715,89.1095863 567.210756,89.0576396 566.7,89.15 C563.511709,89.3572596 560.332112,88.6309909 557.55,87.06 C557.113807,86.8344794 556.723741,86.5292104 556.4,86.16 C556.000491,85.519479 555.760443,84.7924765 555.7,84.04 C555.429618,82.5161037 555.000618,81.0246597 554.42,79.59 C554.256454,79.0729051 553.955792,78.6098159 553.55,78.25 C553.124217,77.9831083 552.640761,77.8219561 552.14,77.78 C547.859054,77.0854238 543.542094,76.6346971 539.21,76.43 C537.79,76.36 535.65,75.79 534.67,77.05 C533.69,78.31 534,81.17 533.88,82.67 Z" id="Path" fill="#A0616A" fill-rule="nonzero"></path>
            <path d="M533.88,82.67 C533.66,84.73 532.98,86.96 531.22,88.05 C529.78,88.95 527.96,88.88 526.3,89.22 C522.765266,90.105094 519.862121,92.6184305 518.48,95.99 C517.148493,99.3452849 516.88654,103.030097 517.73,106.54 C518.122355,108.258915 518.630174,109.949416 519.25,111.6 C520.99,116.52 523.09,121.4 526.34,125.49 C529.113233,128.741519 532.23153,131.682107 535.64,134.26 C537.75,135.98 539.93,137.73 542.53,138.54 C544.292711,139.005368 546.106938,139.247265 547.93,139.26 C550.18,139.36 552.58,139.43 554.53,138.31 C557.53,136.58 558.42,132.76 560.05,129.69 C561.43,127.09 563.49,124.88 564.78,122.23 C565.696571,120.141326 566.367725,117.953366 566.78,115.71 L569.55,103.41 C570.55,98.94 571.47,93.9 568.96,90.07 C568.77777,89.7583693 568.524147,89.4944638 568.22,89.3 C567.73715,89.1095863 567.210756,89.0576396 566.7,89.15 C563.511709,89.3572596 560.332112,88.6309909 557.55,87.06 C557.113807,86.8344794 556.723741,86.5292104 556.4,86.16 C556.000491,85.519479 555.760443,84.7924765 555.7,84.04 C555.429618,82.5161037 555.000618,81.0246597 554.42,79.59 C554.256454,79.0729051 553.955792,78.6098159 553.55,78.25 C553.124217,77.9831083 552.640761,77.8219561 552.14,77.78 C547.859054,77.0854238 543.542094,76.6346971 539.21,76.43 C537.79,76.36 535.65,75.79 534.67,77.05 C533.69,78.31 534,81.17 533.88,82.67 Z" id="Path" fill="#000000" fill-rule="nonzero" opacity="0.1"></path>
            <path d="M525.85,89.74 C523.534354,89.0484334 521.136155,88.6717177 518.72,88.62 C513,88.48 506.88,90.45 503.58,95.12 C501.331823,98.4908615 500.508579,102.614275 501.29,106.59 C502.086344,110.528489 503.87635,114.198002 506.49,117.25 C508.000171,118.854304 509.340615,120.610286 510.49,122.49 C512.07,125.49 512.12,129.08 512.55,132.49 C513.55,140.61 517.01,148.24 518.38,156.31 C519.75,164.38 518.57,173.73 512.2,178.86 C511.13,179.72 509.83,180.63 509.74,182 C509.6,184.19 512.45,185.12 514.64,185.33 C521.19,185.95 527.91,186.56 534.27,184.87 C536.9,184.17 539.44,183.08 542.12,182.58 C548.92,181.31 555.76,183.92 562.57,185.17 C567.498154,185.9836 572.485145,186.388312 577.48,186.38 C578.642511,186.483921 579.813637,186.330275 580.91,185.93 C582.024627,185.492831 582.728312,184.384729 582.65,183.19 C582.427808,182.436142 582.022411,181.749029 581.47,181.19 C578.03,176.94 576.98,171.29 576.04,165.9 L572.89,147.79 C571.2,138.11 569.63,127.59 574.21,118.9 C577.5,112.65 583.57,108.25 587.04,102.1 C588.249604,100.241151 588.795796,98.0281909 588.59,95.82 C588.07,92.73 585.28,90.52 582.42,89.23 C576.917044,86.7614122 570.669265,86.5318726 565,88.59 C565.1,92.92 564,97.3 563.29,101.59 L562.08,108.59 C561.464208,112.715247 560.558635,116.792 559.37,120.79 C558.93835,122.38944 558.201491,123.890323 557.2,125.21 C556.132238,126.397325 554.827539,127.347745 553.37,128 C550.213555,129.543303 546.743492,130.337242 543.23,130.32 C541.708504,130.343374 540.193952,130.110106 538.75,129.63 C536.423936,128.610253 534.325926,127.134506 532.58,125.29 C531.968143,124.766991 531.420935,124.172784 530.95,123.52 C530.451707,122.688926 530.077743,121.789392 529.84,120.85 C529.030236,118.404096 528.392021,115.9047 527.93,113.37 C527.63,111.43 527.53,109.46 527.39,107.5 C527,101.71 527,95.31 525.85,89.74 Z" id="Path" fill="#6C63FF" fill-rule="nonzero"></path>
            <path d="M519.84,204.49 C519.84,204.49 517.47,235.92 532.29,241.25 C547.11,246.58 534.07,215.16 534.07,215.16 L529.32,205.68 L519.84,204.49 Z" id="Path" fill="#A0616A" fill-rule="nonzero"></path>
            <path d="M570.23,204.49 C570.23,204.49 572.6,235.92 557.78,241.25 C542.96,246.58 556,215.16 556,215.16 L560.75,205.68 L570.23,204.49 Z" id="Path" fill="#A0616A" fill-rule="nonzero"></path>
            <path d="M506.79,99.59 L502.05,107.3 C502.05,107.3 506.2,133.98 506.79,138.72 C507.301724,142.140322 508.097817,145.512008 509.17,148.8 C509.17,148.8 509.76,163.03 509.76,168.37 C509.76,173.71 512.76,182.6 512.76,182.6 C513.178425,187.640119 514.185273,192.613951 515.76,197.42 C518.13,203.94 520.5,211.65 520.5,211.65 C520.5,211.65 523.5,203.35 535.32,215.8 C538.074953,213.004715 538.074953,208.515285 535.32,205.72 C535.32,205.72 531.77,189.72 531.77,181.41 C531.77,173.1 525.24,133.41 525.24,133.41 C525.24,133.41 521,88.29 506.79,99.59 Z" id="Path" fill="#000000" fill-rule="nonzero" opacity="0.1"></path>
            <path d="M505.61,98.96 L500.87,106.67 C500.87,106.67 505.02,133.35 505.61,138.09 C506.123335,141.510932 506.922806,144.88276 508,148.17 C508,148.17 508.59,162.4 508.59,167.73 C508.59,173.06 511.59,181.96 511.59,181.96 C512.005777,187.000495 513.012688,191.974634 514.59,196.78 C516.96,203.31 519.34,211.01 519.34,211.01 C519.34,211.01 522.34,202.71 534.16,215.16 C536.908389,212.365918 536.908389,207.884082 534.16,205.09 C534.16,205.09 530.6,189.09 530.6,180.78 C530.6,172.47 524.08,132.78 524.08,132.78 C524.08,132.78 519.84,87.69 505.61,98.96 Z" id="Path" fill="#6C63FF" fill-rule="nonzero"></path>
            <path d="M583.87,94.81 L586.87,98.34 C586.87,98.34 590.36,118.52 582.65,144.02 L580.28,167.14 C580.28,167.14 576.13,186.71 575.54,191.45 C574.95,196.19 574.95,196.78 573.76,198.56 C573.013796,199.420795 573.013796,200.699205 573.76,201.56 L570.2,214.56 C570.2,214.56 564.87,208.04 554.2,216.34 C554.2,216.34 551.2,211.6 553.6,207.45 C556,203.3 555.97,201.52 555.38,200.33 C554.79,199.14 557.75,193.22 557.75,192.03 C557.75,190.84 561.93,163.59 561.93,163.59 C561.93,163.59 563.71,136.91 565.49,128.02 C566.58,122.55 566.56,110.36 566.37,101.78 C566.18,92.84 577,88 583.37,94.28 C583.52,94.44 583.7,94.59 583.87,94.81 Z" id="Path" fill="#000000" fill-rule="nonzero" opacity="0.1"></path>
            <path d="M585.65,93.59 L588.65,97.12 C588.65,97.12 592.14,117.31 584.43,142.8 L582.06,165.92 C582.06,165.92 577.91,185.49 577.32,190.23 C576.73,194.97 576.72,195.57 575.54,197.35 C574.789454,198.20917 574.789454,199.49083 575.54,200.35 L572,213.39 C572,213.39 566.67,206.86 556,215.16 C556,215.16 553,210.42 555.41,206.27 C557.82,202.12 557.78,200.34 557.19,199.16 C556.6,197.98 559.56,192.04 559.56,190.86 C559.56,189.68 563.71,162.4 563.71,162.4 C563.71,162.4 565.49,135.72 567.27,126.82 C569.05,117.92 567.86,91.25 567.86,91.25 C567.86,91.25 577.35,84.73 585.65,93.59 Z" id="Path" fill="#6C63FF" fill-rule="nonzero"></path>
            <circle id="Oval" fill="#A0616A" fill-rule="nonzero" cx="545.92" cy="61.61" r="23.72"></circle>
            <path d="M558.29,26 C555.954965,32.5176048 549.820127,36.9016214 542.897558,36.9995928 C535.974989,37.0975642 529.718543,32.8889147 527.2,26.44 C536.46,22.71 545.92,26.03 545.92,26.03 C550.65,24.37 554.75,24.52 558.29,26 Z" id="Path" fill="#000000" fill-rule="nonzero" opacity="0.1"></path>
            <path d="M545.92,27.22 C545.92,27.22 500.27,11.22 511.54,88.88 C511.54,88.88 521.62,95.4 529.32,91.25 C529.32,91.25 523.99,37.3 544.74,39.67 C565.49,42.04 561.93,90.07 561.93,90.07 C561.93,90.07 573.79,93.62 577.35,87.07 C580.91,80.52 576.16,16.59 545.92,27.22 Z" id="Path" fill="#3F3D56" fill-rule="nonzero"></path>
            <path d="M544.74,36.11 C530.5,34.49 528.54,59.38 528.74,75.16 C528.91,59.47 531.55,38.16 544.74,39.67 C559.55,41.36 561.98,66.33 562.15,80.47 C562.32,67.49 560.9,37.96 544.74,36.11 Z" id="Path" fill="#000000" fill-rule="nonzero" opacity="0.1"></path>
            <path d="M511.54,85.32 C510.507769,78.5220115 509.916534,71.6643492 509.77,64.79 C509.720523,72.8542225 510.312388,80.909611 511.54,88.88 C511.54,88.88 521.62,95.4 529.32,91.25 C529.32,91.25 529.2,89.97 529.06,87.82 C521.39,91.69 511.54,85.32 511.54,85.32 Z" id="Path" fill="#000000" fill-rule="nonzero" opacity="0.1"></path>
            <path d="M577.35,83.59 C574.03,89.67 563.52,87 562.1,86.59 C562.03,88.79 561.93,90.11 561.93,90.11 C561.93,90.11 573.79,93.66 577.35,87.11 C578.08,85.77 578.46,81.98 578.35,76.91 C578.25,80.16 577.9,82.59 577.35,83.59 Z" id="Path" fill="#000000" fill-rule="nonzero" opacity="0.1"></path>
            <path d="M826.73,672.96 C831.47,664.18 826.09,653.42 819.91,645.59 C813.73,637.76 806.18,629.59 806.34,619.59 C806.57,605.24 821.79,596.78 833.96,589.17 C842.981081,583.52852 851.302356,576.838604 858.75,569.24 C861.75,566.19 864.62,562.93 866.37,559.03 C868.89,553.43 868.82,547.03 868.66,540.91 C868.133333,520.436667 867.133333,499.99 865.66,479.57" id="Path" stroke="#3F3D56" stroke-width="4"></path>
            <path d="M888.74,478.49 C888.39256,470.878242 884.184391,463.970209 877.58,460.17 L872.58,470.07 L872.73,458.07 C863.397257,455.309141 853.350355,458.8993 847.880865,466.949586 C842.411375,474.999873 842.774522,485.662781 848.779042,493.322297 C854.783562,500.981812 865.051442,503.880109 874.174725,500.490691 C883.298007,497.101274 889.182938,488.202 888.73,478.48 L888.74,478.49 Z" id="Path" fill="#6C63FF" fill-rule="nonzero"></path>
            <path d="M848.86,629.88 C844.02459,639.283126 833.263626,644.013862 823.065984,641.219567 C812.868343,638.425273 806.021975,628.869884 806.655249,618.315315 C807.288523,607.760746 815.228308,599.092526 825.686902,597.537606 C836.145496,595.982685 846.263607,601.966166 849.94,611.88 L835.94,623.25 L851.31,619.68 C851.317953,623.226672 850.477942,626.723861 848.86,629.88 L848.86,629.88 Z" id="Path" fill="#6C63FF" fill-rule="nonzero"></path>
            <path d="M837.81,586.45 C826.483486,586.930016 816.588579,578.86125 814.779481,567.669848 C812.970382,556.478446 819.819119,545.703058 830.72,542.59 L830.6,551.81 L835.66,541.81 L835.72,541.81 C843.738667,541.377215 851.374089,545.275698 855.725938,552.024604 C860.077787,558.773511 860.478284,567.337239 856.775298,574.462843 C853.072313,581.588446 845.83406,586.182521 837.81,586.5 L837.81,586.45 Z" id="Path" fill="#6C63FF" fill-rule="nonzero"></path>
            <path d="M892.11,550.32 C882.6231,550.764198 873.889826,545.169608 870.327238,536.365827 C866.764651,527.562046 869.149421,517.468366 876.275396,511.189905 C883.40137,504.911444 893.715031,503.816954 902,508.46 L898,519.29 L906.13,511.49 C912.785626,517.595363 915.116904,527.10411 912.040019,535.595611 C908.963135,544.087112 901.081777,549.895324 892.06,550.32 L892.11,550.32 Z" id="Path" fill="#6C63FF" fill-rule="nonzero"></path>
            <path d="M885.74,484.45 C880.57,485.02 875.55,486.63 870.37,486.95 C865.19,487.27 859.5,486.03 856.23,481.95 C854.46,479.78 853.58,477.04 852.09,474.67 C850.674858,472.469621 848.741746,470.649818 846.46,469.37 C842.522076,477.112018 843.421763,486.433709 848.767653,493.279697 C854.113544,500.125684 862.939108,503.258221 871.404806,501.314505 C879.870505,499.37079 886.445751,492.702244 888.27,484.21 C887.42,484.3 886.58,484.36 885.74,484.45 Z" id="Path" fill="#000000" fill-rule="nonzero" opacity="0.1"></path>
            <path d="M892.11,550.32 C884.26861,550.679624 876.811549,546.9066 872.456413,540.375941 C868.101276,533.845283 867.484174,525.510857 870.83,518.41 C872.610889,519.604116 874.13984,521.136465 875.33,522.92 C876.92,525.32 877.89,528.1 879.76,530.31 C883.24,534.4 889.2,535.74 894.6,535.5 C900,535.26 905.2,533.72 910.6,533.22 C911.35,533.16 912.1,533.11 912.86,533.09 C910.572565,542.826035 902.100591,549.860835 892.11,550.32 L892.11,550.32 Z" id="Path" fill="#000000" fill-rule="nonzero" opacity="0.1"></path>
            <path d="M837.81,586.45 C830.04892,586.812739 822.655464,583.122456 818.280044,576.702048 C813.904625,570.28164 813.173968,562.050751 816.35,554.96 C818.194629,556.170917 819.798462,557.713716 821.08,559.51 C822.82,561.96 823.9,564.78 825.94,567.05 C829.71,571.25 836.05,572.73 841.77,572.59 C847.31,572.47 852.64,571.11 858.15,570.69 C855.374722,579.70897 847.236274,586.014867 837.81,586.45 L837.81,586.45 Z" id="Path" fill="#000000" fill-rule="nonzero" opacity="0.1"></path>
            <path d="M848.86,629.88 C843.475015,640.55828 830.643622,645.112459 819.731622,640.218382 C808.819622,635.324304 803.686946,622.713165 808.08,611.59 C809.924508,612.798835 811.579231,614.274942 812.99,615.97 C815.12,618.56 816.52,621.5 818.99,623.91 C823.56,628.4 830.94,630.25 837.51,630.42 C841.300631,630.461711 845.090451,630.281402 848.86,629.88 L848.86,629.88 Z" id="Path" fill="#000000" fill-rule="nonzero" opacity="0.1"></path>
            <path d="M793,662.85 C793,662.85 810.65,662.31 816,658.52 C821.35,654.73 843.16,650.21 844.48,656.28 C845.8,662.35 871.01,686.5 851.08,686.66 C831.15,686.82 804.77,683.56 799.46,680.32 C794.15,677.08 793,662.85 793,662.85 Z" id="Path" fill="#656380" fill-rule="nonzero"></path>
            <path d="M851.4,684.59 C831.47,684.75 805.09,681.48 799.78,678.25 C795.78,675.78 794.13,666.95 793.59,662.87 L793,662.87 C793,662.87 794.12,677.11 799.43,680.34 C804.74,683.57 831.12,686.84 851.05,686.68 C856.8,686.68 858.79,684.59 858.68,681.56 C857.88,683.37 855.69,684.51 851.4,684.59 Z" id="Path" fill="#000000" fill-rule="nonzero" opacity="0.2"></path>
            <path d="M323,42.86 L304.75,54.43 L315.83,34.28 C312.703466,31.7800252 308.832776,30.3936145 304.83,30.34 L304.53,30.34 C303.264226,30.357716 301.999349,30.2640214 300.75,30.06 L294.56,33.98 L297.21,29.16 C292.829649,27.6293722 289.043469,24.7564941 286.39,20.95 L275.32,27.95 L282.32,15.23 C275.84,7.46 267.12,2.69 257.51,2.69 C246,2.69 235.75,9.54 229.13,20.21 C225.144528,26.7040683 217.98586,30.5657803 210.37,30.33 L209.75,30.33 C197.04,30.33 186.75,44.74 186.75,62.52 C186.75,80.3 197.05,94.7 209.75,94.7 C212.53939,94.6918942 215.284959,94.0055021 217.75,92.7 C226.04,88.39 236.92,88.31 245.6,92.16 C253.126632,95.5453832 261.739139,95.5635684 269.28,92.21 C277.9,88.44 288.65,88.52 296.89,92.75 C299.334514,94.0434334 302.054463,94.729423 304.82,94.75 C317.53,94.75 327.82,80.34 327.82,62.57 C327.896149,55.6992336 326.238367,48.920215 323,42.86 Z" id="Path" fill="#F2F2F2" fill-rule="nonzero"></path>
            <path d="M288.59,89.95 C281.950078,88.6873956 275.084509,89.432442 268.87,92.09 C261.331992,95.4405867 252.723786,95.422403 245.2,92.04 C236.51,88.19 225.63,88.27 217.34,92.58 C214.874959,93.8855021 212.12939,94.5718942 209.34,94.58 C198.05,94.58 188.66,83.2 186.7,68.2 C188.955403,66.5570301 190.870764,64.492243 192.34,62.12 C199,51.46 209.21,44.59 220.72,44.59 C232.23,44.59 242.36,51.36 248.98,61.91 C252.997932,68.3931307 260.113219,72.3035046 267.74,72.22 L268,72.22 C277,72.23 284.8,79.44 288.59,89.95 Z" id="Path" fill="#000000" fill-rule="nonzero" opacity="0.03"></path>
            <path d="M800.07,66.42 L791,72.19 L796.53,62.19 C794.96798,60.9271386 793.02839,60.2231133 791.02,60.19 L790.88,60.19 C790.247113,60.198858 789.614674,60.1520107 788.99,60.05 L785.9,62.05 L787.2,59.59 C785.014576,58.828652 783.124945,57.3974316 781.8,55.5 L776.28,59 L779.77,52.66 C776.795714,48.8218906 772.254091,46.5235426 767.4,46.4 C761.65,46.4 756.54,49.82 753.24,55.14 C751.2433,58.3655492 747.671186,60.2737294 743.88,60.14 L743.57,60.14 C737.23,60.14 732.09,67.33 732.09,76.14 C732.09,84.95 737.23,92.19 743.57,92.19 C744.964596,92.1851485 746.337191,91.8419995 747.57,91.19 C751.936595,89.0683479 757.014252,88.9696462 761.46,90.92 C765.218861,92.5932755 769.511139,92.5932755 773.27,90.92 C777.682027,89.0091568 782.706271,89.1076713 787.04,91.19 C788.272665,91.8423748 789.645355,92.1855473 791.04,92.19 C797.38,92.19 802.52,85.01 802.52,76.14 C802.52955,72.7460335 801.687151,69.4039442 800.07,66.42 Z" id="Path" fill="#F2F2F2" fill-rule="nonzero"></path>
            <path d="M782.92,89.91 C779.609694,89.2848005 776.188268,89.6572242 773.09,90.98 C769.331139,92.6532755 765.038861,92.6532755 761.28,90.98 C756.830861,89.0292791 751.750028,89.1279715 747.38,91.25 C746.148206,91.9046457 744.774945,92.247961 743.38,92.25 C737.74,92.25 733.06,86.58 732.08,79.1 C733.201563,78.2876775 734.158539,77.2696178 734.9,76.1 C738.2,70.78 743.32,67.37 749.06,67.37 C754.8,67.37 759.85,70.74 763.15,76 C765.152595,79.2363483 768.704459,81.1868374 772.51,81.14 L772.66,81.14 C777.15,81.07 781,84.67 782.92,89.91 Z" id="Path" fill="#000000" fill-rule="nonzero" opacity="0.03"></path>
            <path d="M204.34,215.86 L219,225.14 L210.12,208.99 C212.637972,206.985683 215.751914,205.87733 218.97,205.84 L219.2,205.84 C220.204524,205.855039 221.208416,205.78142 222.2,205.62 L227.15,208.76 L225,204.9 C228.506783,203.666912 231.538896,201.365724 233.67,198.32 L242.54,203.94 L237,193.75 C242.19,187.53 249.18,183.75 256.87,183.75 C266.1,183.75 274.31,189.23 279.62,197.75 C282.804635,202.946838 288.527691,206.041103 294.62,205.86 L295.12,205.86 C305.3,205.86 313.55,217.4 313.55,231.64 C313.55,245.88 305.3,257.43 295.12,257.43 C292.877996,257.421297 290.671567,256.868832 288.69,255.82 C281.676148,252.412246 273.519955,252.255044 266.38,255.39 C260.334875,258.09209 253.425125,258.09209 247.38,255.39 C240.29294,252.320071 232.222395,252.476957 225.26,255.82 C223.298361,256.841015 221.121421,257.379251 218.91,257.39 C208.72,257.39 200.47,245.85 200.47,231.6 C200.422044,226.112095 201.752723,220.699979 204.34,215.86 L204.34,215.86 Z" id="Path" fill="#F2F2F2" fill-rule="nonzero"></path>
            <path d="M231.89,253.59 C237.210837,252.587309 242.709548,253.185903 247.69,255.31 C253.735125,258.01209 260.644875,258.01209 266.69,255.31 C273.833347,252.174678 281.992714,252.33187 289.01,255.74 C290.987999,256.788763 293.191181,257.341275 295.43,257.35 C304.48,257.35 312,248.24 313.57,236.22 C311.764206,234.898383 310.229632,233.241587 309.05,231.34 C303.74,222.8 295.53,217.34 286.3,217.34 C277.07,217.34 268.97,222.76 263.66,231.22 C260.446501,236.403632 254.758588,239.531984 248.66,239.47 L248.43,239.47 C241.17,239.4 234.93,245.18 231.89,253.59 Z" id="Path" fill="#000000" fill-rule="nonzero" opacity="0.03"></path>
        </g>
    </g>
</svg>